<svg class="edgtf-cut-off-effect edgtf-cut-off-effect-shallow-bottom" preserveAspectRatio="none" width="100%" height="26px" viewBox="0 0 1920 26" enable-background="new 0 0 1920 26"><g>
	<polygon style="fill:#000000" points="1913.184,-0.05 1910.814,-0.697 1910.943,-0.781 1910.6,-1.67 1908.492,-1.309 1907.825,-1.278 
		1907.731,-1.306 1907.183,-0.379 1905.414,-0.26 1904.123,-0.804 1904.694,-0.463 1903.745,-0.953 1902.031,-0.563 
		1902.557,-1.731 1901.416,-0.788 1899.41,-0.919 1899.074,-0.973 1899.052,-1.53 1898.734,-0.451 1897.757,-0.989 1895.601,-0.356 
		1896.472,-1.761 1893.809,-0.681 1893.338,-0.546 1893.216,-0.566 1893.108,-1.566 1891.471,-0.652 1890.551,-1.042 
		1890.664,-1.338 1888.228,-1.37 1888.939,-0.876 1887.361,-1.931 1885.844,-0.76 1886.075,-0.693 1884.294,-1.668 1883.96,-0.622 
		1884.194,-0.799 1882.938,-1.002 1880.968,-1.758 1881.924,0.065 1879.893,-0.283 1878.511,-0.805 1877.658,-1.534 
		1878.115,-0.997 1877.669,-0.322 1876.633,-0.744 1876.305,-0.179 1873.864,-0.776 1873.648,-0.657 1873.975,-1.188 
		1871.462,-1.12 1871.762,-1.796 1870.788,-0.928 1870.396,-1.904 1869.754,-0.103 1868.699,-1.31 1866.943,0.09 1867.212,-0.09 
		1864.989,-0.46 1864.279,-1.409 1864.022,-0.96 1862.656,-0.179 1862.854,-0.332 1860.865,-0.761 1861.347,-1.923 1860.309,-1.427 
		1859.62,-0.46 1858.114,-0.49 1858.617,-0.305 1857.391,-1.038 1856.174,-1.202 1855.9,-1.276 1854.481,-0.053 1853.064,-0.644 
		1852.68,-0.615 1852.906,-0.918 1851.156,-0.536 1850.386,-0.128 1849.566,-0.689 1848.72,-1.279 1848.412,-0.731 1847.355,-1.29 
		1845.944,-1.937 1845.877,-0.255 1845.521,-1.236 1843.39,-0.075 1844.194,-0.25 1841.866,-1.649 1841.436,-1.202 1841.213,-1.102 
		1839.706,-0.957 1840.052,-1.067 1839.375,-0.73 1838.794,-0.274 1837.117,-0.411 1835.729,-1.43 1834.912,-0.668 1835.106,-0.153 
		1833.275,-1.827 1832.385,0.012 1832.223,-1.344 1831.263,-0.824 1831.209,-0.898 1828.964,-0.04 1829.174,-1.346 1828.09,-1.11 
		1826.843,-0.649 1826.046,-1.735 1825.645,-0.631 1824.452,-1.662 1823.813,-0.814 1822.529,-1.485 1821.842,-0.549 
		1822.358,-0.334 1820.11,-1.822 1820.952,-0.569 1819.873,-0.723 1818.951,-1.884 1818.479,-0.031 1817.985,-0.938 
		1816.092,-1.173 1815.162,-0.528 1814.318,-0.625 1813.429,-0.571 1813.615,-1.694 1812.852,-0.853 1811.696,-1.327 
		1809.885,-0.145 1810.749,-0.912 1809.271,-0.36 1808.622,-0.428 1807.178,-1.48 1806.639,-0.77 1805.661,-1.442 1804.792,-1.007 
		1803.811,-1.002 1802.92,-0.396 1803.077,-0.043 1802.227,-1.726 1800.87,-0.742 1799.661,-0.914 1798.757,-1.83 1798.464,-0.972 
		1798.733,-0.416 1797.853,-0.248 1797.029,-1.62 1794.793,-0.924 1794.798,-0.47 1792.979,-1.74 1793.624,-1.571 1792.818,-0.691 
		1791.408,-1.576 1791.316,0.045 1789.819,-1.664 1788.359,-1.167 1789.08,-0.791 1786.607,-0.092 1786.082,-0.059 1785.608,-0.604 
		1784.282,-1.456 1784.023,-1.636 1784.34,-1.362 1782.056,-1.332 1781.832,-1.569 1780.378,-0.3 1780.535,-0.879 1778.726,-0.596 
		1778.05,-0.012 1777.545,-1.336 1776.431,-1.708 1776.102,-1.129 1775.223,-0.601 1774.299,-1.401 1774.033,-0.119 
		1772.128,-1.585 1771.825,-1.349 1770.941,-1.466 1770.725,-1.661 1769.861,-1.579 1768.281,-1.72 1768.795,-1.103 
		1766.951,-0.385 1766.428,-1.207 1765.257,-0.509 1764.616,-0.827 1765.107,-0.922 1762.52,-0.685 1762.532,0.002 1761.08,-0.618 
		1760.844,-0.59 1760.792,-0.655 1758.965,-0.231 1758.892,-0.208 1757.033,-0.961 1757.04,-1.108 1756.597,-0.109 1755.067,-0.712 
		1754.92,-1.784 1753.615,-1.777 1752.569,-1.659 1752.107,-0.327 1751.459,-0.241 1750.48,-0.689 1750.379,-1.289 1748.024,-0.204 
		1748.053,-1.197 1748.192,-0.95 1747.241,-0.695 1744.907,-0.222 1745.414,-0.141 1744.214,-1.682 1743.304,-0.313 
		1742.516,-1.435 1741.438,-0.768 1741.572,-1.314 1739.789,-0.475 1738.392,-0.005 1738.005,-1.459 1738.4,-1.244 1736.452,-1.144 
		1736.828,-1.452 1734.371,-1.163 1734.419,-1.089 1732.763,-0.221 1732.626,-0.287 1733.018,-0.113 1731.792,-1.064 
		1730.977,-0.324 1729.264,-1.703 1728.84,0.069 1727.335,-0.104 1726.982,-0.024 1726.488,-1.304 1726.691,-0.097 1724.519,-1.315 
		1724.4,-1.148 1724.048,-0.653 1721.678,-0.933 1721.25,-1.831 1721.545,-0.255 1720.397,-0.129 1720.318,-1.028 1717.818,-0.374 
		1718.614,-0.561 1716.145,-1.793 1716.655,0.165 1715.58,-1.289 1714.238,-0.443 1714.089,-0.437 1712.429,-1.279 1712.656,-1.057 
		1712.311,-0.5 1710.771,-1.323 1708.988,-0.268 1708.33,-1.842 1707.809,-0.791 1707.316,-0.609 1706.911,-0.726 1705.896,-1.168 
		1705.247,-1.613 1704.488,-0.127 1703.402,-0.377 1702.605,-1.435 1701.97,-1.571 1701.646,-0.613 1699.463,-1.125 1698.35,-1.37 
		1698.351,-1.808 1696.819,-1.599 1696.584,-1.345 1696.79,-0.133 1696.086,-0.266 1695.16,-1.708 1693.628,-0.398 1693.415,-1.114 
		1692.097,-1.495 1690.664,-0.524 1691.089,-0.234 1690.594,-1.131 1688.773,-0.661 1688.215,-0.139 1687.21,-1.609 1686.877,0.024 
		1684.858,-1.228 1684.624,-0.586 1683.855,-0.325 1683.554,-0.923 1682.987,-1.888 1682.26,-1.505 1680.463,0.01 1679.501,-1.09 
		1678.721,-1.247 1679.417,-1.388 1678.604,-0.634 1677.16,-1.058 1675.406,-0.333 1675.565,-0.265 1674.207,-0.075 
		1673.116,-1.662 1672.33,0.006 1671.538,-0.452 1671.581,-0.162 1671.256,-0.772 1669.391,-0.596 1669.822,-1.865 1668.459,0.034 
		1666.919,-0.722 1666.653,-1.618 1666.256,-0.659 1664.284,-1.337 1663.903,-1.677 1662.732,-0.54 1662.14,-0.581 1662.28,-0.947 
		1661.73,-0.38 1659.578,-1.586 1659.318,-0.11 1659.451,-0.338 1658.145,-0.292 1656.284,-0.28 1655.602,-1.374 1656.239,-1.524 
		1654.196,-1.029 1653.801,-1.038 1653.46,-0.65 1651.482,-1.93 1651.846,-1.017 1649.932,-0.945 1649.107,-0.213 1648.391,-0.34 
		1648.94,-0.402 1647.432,-1.379 1646.587,-1.447 1646.514,-0.489 1644.226,-1.854 1644.911,-1.338 1644.095,-1.395 
		1643.103,-1.778 1641.313,-1.235 1640.08,-0.69 1639.933,-0.758 1638.808,-1.008 1637.847,-0.034 1638.238,-0.025 1636.296,-1.619 
		1636.62,-0.056 1634.849,-1.803 1635.101,-0.418 1634.547,-1.59 1632.945,-0.555 1631.059,-1.771 1630.693,-0.412 1630.517,-0.355 
		1629.876,-0.734 1628.164,-0.118 1627.78,-1.8 1627.293,-1.36 1626.09,-1.563 1626.302,-0.672 1625.233,-0.918 1624.298,-0.914 
		1622.365,-1.107 1623.019,-0.547 1621.838,-0.882 1621.202,-0.436 1620.178,-1.095 1620.078,-0.12 1619.178,-0.352 
		1616.688,-1.382 1616.51,-0.163 1616.32,-1.106 1615.287,-0.588 1613.807,-1.779 1614.16,-1.23 1613.584,-1.311 1612.541,-0.968 
		1612.216,-0.301 1610.092,-1.521 1608.83,-0.816 1609.043,-0.011 1607.189,-0.548 1606.624,-1.892 1606.368,-1.465 
		1606.159,-1.125 1605.197,-1.052 1604.139,-1.109 1602.955,-0.916 1603.085,-1.42 1602.461,-0.22 1601.384,-0.982 1599.347,-0.231 
		1600.062,-1.479 1598.015,-0.215 1597.513,-1.676 1597.306,-0.176 1596.513,-1.487 1595.813,-1.707 1594.176,-1.27 1594.53,-1.766 
		1593.615,-0.134 1591.261,-0.392 1591.027,-0.381 1590.947,-0.459 1589.999,-1.227 1588.923,-0.142 1588.953,-1.636 
		1587.321,-1.163 1585.841,-1.088 1586.214,-0.629 1585.601,-0.443 1583.26,-0.899 1584.04,-1.669 1583.088,-0.603 1581.817,-0.156 
		1581.011,-0.959 1579.674,-0.262 1578.895,-1.446 1578.618,-1.834 1576.782,-0.378 1576.979,-0.991 1575.525,-1.387 
		1575.522,-1.436 1574.717,-0.563 1574.179,-0.224 1572.196,-0.258 1572.255,-1.01 1571.079,-0.521 1569.629,-0.434 1569.65,-0.847 
		1569.543,-0.124 1567.91,-1.16 1566.757,-0.095 1566.583,-1.577 1565.7,-1.107 1564.917,-1.777 1563.139,-0.5 1563.325,-0.898 
		1562.643,-0.096 1562.482,-0.101 1561.399,-0.021 1559.874,-0.223 1558.998,-0.979 1558.865,-0.618 1557.585,-1.09 1556.967,-0.62 
		1556.772,-0.852 1555.024,-0.503 1555.214,-1.013 1553.734,-0.582 1551.973,-0.895 1551.197,-1.048 1551.87,-0.08 1550.047,-0.908 
		1549.369,-0.328 1549.172,-0.182 1548.229,-1.983 1547.828,-1.338 1546.111,-0.572 1546.441,-1.128 1544.318,-1.102 
		1543.102,-0.052 1543.961,-0.576 1541.741,-0.747 1541.982,-0.707 1540.231,-1.385 1540.703,-1.672 1539.312,-1.183 
		1538.624,-0.348 1538.063,-0.46 1535.812,-0.695 1535.169,0.073 1535.455,-1.752 1533.491,-0.811 1533.272,-0.415 1533.233,-1.769 
		1532.345,-0.021 1530.678,-1.004 1530.8,-1.94 1529.387,-1.918 1529.755,-1.386 1528.914,-0.015 1528,-1.294 1526.493,-0.41 
		1525.095,0.035 1524.57,-1.299 1523.163,-0.937 1522.488,0.056 1522.046,-0.252 1520.86,-1.245 1521.391,-1.204 1520.517,-1.585 
		1518.63,-0.151 1519.421,-1.028 1518.211,-0.104 1516.674,-1.396 1515.789,-1.491 1515.063,-1.286 1515.268,-0.574 
		1513.916,-1.237 1513.234,-0.65 1511.327,-0.116 1511.979,-0.607 1510.73,-1.5 1509.174,-1.823 1508.582,-1.502 1508.42,-0.71 
		1507.067,-0.429 1505.944,-0.223 1505.182,-0.51 1504.202,-0.425 1504.159,-1.11 1503.332,-0.365 1502.669,-0.785 1501.168,-0.621 
		1500.116,-0.297 1501.043,-0.242 1498.742,-0.739 1497.886,-0.554 1497.358,-0.326 1496.311,0.012 1496.193,-0.388 
		1495.548,-0.722 1495.411,-1.67 1493.658,-1.317 1492.972,-0.406 1492.125,-1.237 1492.075,-0.745 1489.742,-1.055 
		1490.569,-1.552 1489.477,-1.553 1487.611,0.068 1486.781,-1.084 1486.074,-1.816 1485.716,-0.593 1485.374,-0.037 
		1484.866,-0.332 1483.657,-0.658 1483.18,-1.529 1481.877,-0.749 1480.965,-1.044 1480.154,-1.118 1478.213,-0.235 1478.31,-1.944 
		1476.775,-0.135 1476.146,-0.82 1475.218,-0.292 1474.369,-0.392 1474.957,-1.908 1473.059,-1.272 1473.531,-0.552 
		1471.654,-0.253 1470.667,-1.221 1469.803,-0.738 1468.945,-1.579 1468.298,-0.698 1467.552,-1.26 1466.975,-1.622 
		1466.367,-1.444 1466.449,0.098 1464.223,-1.191 1463.613,-1.544 1462.591,-0.492 1462.188,-0.058 1462.188,-1.889 
		1460.384,-1.081 1460.496,-1.651 1458.443,-0.441 1457.688,-0.728 1458.115,-1.079 1457.583,-0.74 1456.319,-0.806 
		1454.992,-0.307 1454.41,-1.844 1453.193,-1.071 1453.811,-0.734 1452.153,-1.258 1451.611,-0.807 1450.867,-0.142 
		1450.625,-1.025 1449.272,-0.71 1447.152,-1.272 1447.127,-0.21 1445.951,-0.157 1445.951,0.004 1444.588,-0.317 1445.056,-1.932 
		1443.222,-0.359 1443.345,-1.411 1441.915,-0.862 1440.826,-1.456 1439.363,-1.042 1438.733,-1.851 1437.746,-1.517 
		1438.658,-1.208 1436.684,-1.152 1435.225,-0.688 1435.298,-0.106 1434.892,-0.309 1434.037,-0.435 1433.831,-1.028 
		1432.268,-1.318 1430.475,-1.666 1430.045,-0.262 1430.598,-1.535 1429.757,-0.56 1428.344,-0.388 1427.706,-0.679 
		1426.402,-0.166 1426.125,-0.758 1425.675,-1.037 1423.295,-1.112 1423.269,-1.907 1421.485,-0.878 1422.656,-1.131 
		1420.146,-1.004 1419.826,-0.969 1418.533,-1.475 1418.222,-1.991 1417.462,-1.875 1417.182,-0.541 1416.929,-1.729 
		1416.257,-0.819 1415.275,-0.519 1413.752,-0.774 1413.786,-1.09 1412.852,-0.131 1410.895,-0.311 1410.807,-1.636 1408.97,-0.023 
		1408.374,-1.847 1407.451,-0.8 1406.531,-0.459 1405.633,0.163 1405.714,-0.171 1405.708,-1.769 1403.437,-0.491 1403.037,-0.428 
		1401.976,-1.408 1402.032,-0.274 1401.501,-1.811 1400.041,-1.529 1398.379,-0.828 1397.725,-1.104 1397.38,-1.043 
		1397.702,-0.641 1395.266,-0.334 1394.938,-1.168 1394.98,-0.458 1394.555,-0.484 1393.843,-1.578 1392.95,-1.227 1392.096,-0.446 
		1390.416,-1.028 1390.379,-0.081 1389.676,-0.861 1388.669,-0.492 1387.278,-0.427 1387.438,-0.629 1385.683,-1.321 
		1384.718,-0.217 1384.353,-0.983 1383.567,-0.311 1383.058,-0.956 1382.111,-1.731 1380.764,-1.468 1380.383,-0.007 
		1378.887,-0.84 1378.018,-0.778 1378.082,-1.44 1377.397,-0.232 1375.675,-1.281 1374.442,-0.286 1374.406,-0.922 1374.534,-0.75 
		1372.34,-0.533 1372.832,-1.194 1372.282,-0.346 1370.896,-1.309 1370.082,-1.517 1369.189,0.011 1368.588,-0.629 1366.401,-1.504 
		1366.962,-1.617 1366.2,-1.36 1365.764,0 1364.095,-0.84 1363.107,-0.469 1362.11,-0.846 1361.056,-1.096 1361.432,-1.306 
		1360.95,-0.792 1359.866,-0.796 1357.631,-0.473 1357.952,-1.648 1355.947,-1.666 1355.715,-1.531 1354.991,-0.673 
		1354.179,-1.138 1354.219,0.058 1352.009,-0.22 1351.747,-0.502 1350.836,-0.276 1350.722,-1.682 1349.193,-0.418 1349.463,-1.794 
		1348.938,-0.398 1346.468,-1.398 1346.061,-0.185 1344.949,-0.524 1344.657,-1.325 1344.313,-0.347 1343.136,-0.804 
		1341.57,-0.919 1341.279,-1.567 1341.552,-0.832 1340.723,-1.319 1339.137,-1.15 1339.144,-1.869 1337.073,-1.698 1337.43,-1.725 
		1336.71,-1.046 1335.035,-1.457 1333.57,-0.556 1334.068,-0.979 1333.767,-0.655 1332.114,-1.648 1330.538,-0.687 1331.459,-0.69 
		1330.76,0.006 1328.205,-0.701 1327.371,-0.678 1327.958,-0.014 1325.745,-1.462 1325.631,-1.11 1324.22,-1.172 1324.718,-0.389 
		1322.42,0.104 1323.104,-1.095 1322.526,-1.399 1320.392,-0.959 1320.12,-1.229 1318.563,-1.654 1319.477,-1.171 1318.617,-0.406 
		1317.446,-1.146 1316.844,-0.199 1315.842,-0.321 1315.58,-0.944 1314.036,-0.023 1312.313,-0.378 1311.971,-1.236 
		1311.094,-1.189 1310.959,-0.12 1309.49,-1.668 1309.457,-1.494 1308.122,-0.772 1306.857,-0.66 1307.479,-1.813 1305.879,-0.74 
		1304.732,-0.125 1303.489,-0.315 1304.218,-1.122 1302.938,-1.885 1301.505,-0.209 1301.009,-1.567 1300.102,-0.048 
		1300.053,-0.253 1298.941,-0.85 1297.434,-0.369 1297.813,-0.752 1295.899,-0.326 1296.211,-1.425 1295.434,-1.165 
		1293.576,-1.734 1292.226,-1.838 1292.318,-1.725 1291.197,-1.405 1290.572,-1.353 1290.068,-1.765 1289.949,-1.816 
		1288.528,-0.809 1287.288,-1.456 1287.505,-1.05 1286.672,-1.749 1285.542,-0.428 1284.919,-1.265 1283.409,-1.322 1281.979,0.078 
		1282.021,-0.945 1280.733,-0.625 1280.458,-1.328 1279.757,-0.285 1277.75,-0.105 1277.295,-1.374 1276.566,-0.686 
		1275.276,-0.322 1275.216,-0.999 1275.477,-1.348 1273.344,-0.156 1272.993,-0.583 1271.726,-0.981 1270.726,-0.124 
		1271.045,-1.853 1270.867,-0.369 1269.445,-0.009 1267.898,-1.03 1268.381,-1.362 1265.916,-0.521 1266.792,-1.521 
		1264.896,-1.737 1263.344,-0.38 1264.024,-0.483 1262.227,-1.58 1261.083,-0.094 1262.141,0.084 1260.643,-0.341 1259.143,-1.331 
		1258.44,-0.684 1257.448,-1.11 1256.426,-0.669 1255.319,-0.289 1255.293,-0.936 1255.405,-1.098 1253.726,-0.125 1252.823,-0.016 
		1253.205,-1.627 1250.904,-1.561 1250.834,0.091 1249.361,0.012 1250.01,-1.759 1248.034,-1.321 1246.692,-1.77 1247.55,-0.512 
		1246.422,-0.987 1245.109,-0.104 1244.629,-1.645 1243.75,-0.396 1242.401,-0.177 1242.637,-0.374 1240.152,-1.146 
		1241.032,-0.227 1239.134,-1.051 1239.602,-0.287 1238.725,-0.699 1237.216,-0.274 1237.285,-1.193 1235.135,-0.234 
		1234.274,-0.26 1233.371,-1.33 1232.239,-1.758 1232.219,-0.203 1231.342,-0.443 1231.707,-1.532 1229.727,-1.641 1228.896,-1.756 
		1228.707,-0.238 1227.259,-0.262 1226.815,-1.183 1225.486,-0.55 1224.68,-0.652 1225.04,-1.156 1223.009,-1.543 1223.101,-1.205 
		1220.968,-0.714 1221.929,-0.761 1220.578,-0.936 1218.666,-0.605 1218.853,-0.353 1218.789,0.138 1217.166,-1.576 
		1216.796,-1.802 1214.769,-0.05 1213.971,-1.152 1213.694,-1.807 1212.176,-0.348 1212.17,-0.816 1210.807,-0.545 1210.708,-0.677 
		1209.208,-0.352 1208.235,-0.365 1208.993,-1.683 1207.427,-0.482 1205.822,-2.007 1205.5,-1.64 1205.329,-1.421 1203.581,-1.972 
		1204.32,-0.24 1202.062,-1.704 1202.408,-0.295 1200.184,-0.471 1200.986,-1.764 1198.561,-0.584 1199.223,-1.228 1198.84,-1.781 
		1196.566,-0.251 1195.917,-0.663 1195.214,-0.616 1193.855,-1.375 1192.987,-1.337 1193.933,-0.228 1192.305,-1.672 
		1191.199,-1.827 1191.515,-1.772 1190.465,-1.487 1188.507,-0.746 1188.023,-1.674 1187.109,-0.812 1187.535,-0.944 
		1185.513,-1.233 1185.203,-0.229 1183.81,-0.579 1183.898,-1.511 1183.695,-0.563 1182.203,-0.352 1180.988,-1.447 
		1180.818,-1.471 1179.278,-0.455 1179.33,-1.986 1177.885,-0.049 1178.023,-0.988 1176.749,-2.012 1176.103,-0.405 1175.106,-1.06 
		1172.976,-0.58 1173.715,-0.573 1172.664,-0.57 1171.471,-1.734 1170.454,-1.454 1170.44,-0.055 1169.934,-1.596 1168.546,-1.629 
		1167.22,-0.284 1166.729,-1.341 1166.577,-0.568 1164.629,-1.273 1165.036,-1.281 1164.526,-0.658 1162.566,-1.633 
		1161.522,-0.412 1160.928,-1.56 1160.461,-1.204 1159.446,-0.175 1159.562,-1.753 1157.834,-1.254 1158.109,-1.896 
		1155.764,-0.082 1155.732,-0.238 1154.12,-0.624 1153.566,-1.616 1152.632,-1.035 1152.771,-1.666 1151.794,-1.316 
		1151.746,-0.174 1150.561,-1.322 1148.425,-0.749 1147.542,-0.853 1147.253,-1.656 1146.814,-0.718 1145.767,-0.397 
		1144.588,-0.162 1143.903,0.042 1143.5,-1.373 1142.6,0.057 1142.958,-0.259 1141.632,-1.404 1140.379,-0.722 1138.926,-1.109 
		1139.063,-0.476 1137.064,-1.45 1136.668,-1.312 1135.572,-1.672 1135.369,-0.089 1134.084,-1.503 1133.342,-0.946 
		1133.737,-1.596 1131.411,-0.015 1131.982,-1.424 1130.213,-1.104 1130.796,-1.809 1129.257,-0.166 1129.234,-1.707 
		1127.91,-1.729 1127.341,-1.176 1125.585,-0.813 1125.849,-1.52 1124.456,-0.457 1124.53,-0.54 1122.929,-0.889 1121.699,-0.74 
		1120.632,-0.846 1120.534,-1.434 1119.262,-0.803 1118.812,-0.176 1118.158,-1.547 1117.662,-1.729 1116.65,-1.358 1115.649,0.003 
		1114.552,-0.232 1114.077,-1.853 1112.387,-0.736 1112.081,-0.95 1110.785,-1.343 1110.411,-1.204 1109.004,-1.378 
		1109.648,-1.263 1107.588,0.071 1107.039,-1.245 1107.188,-1.295 1105.92,-0.843 1104.759,-1.776 1104.17,-0.702 1103.039,-1.076 
		1102.488,-1.35 1102.742,-1.37 1100.854,-0.953 1100.6,-0.83 1100.46,-0.776 1099.662,-1.73 1098.064,-0.924 1096.634,-0.482 
		1095.908,-0.938 1096.32,-1.535 1095.673,-1.178 1094.471,-0.413 1093.357,-1.44 1092.603,-0.282 1091.043,-1.201 1090.57,-1.063 
		1090.309,-1.576 1090.237,-1.811 1088.918,0.055 1087.666,-0.572 1086.459,-1.586 1086.317,-1.458 1086.125,-1.426 
		1084.976,-1.204 1083.42,-0.933 1082.057,0.011 1082.811,-0.789 1080.595,-1.677 1079.787,-0.337 1079.52,-1.429 1078.665,-1.236 
		1077.417,-0.147 1076.282,-1.147 1075.669,0.12 1075.396,-0.632 1075.15,-1.7 1074.013,-0.311 1073.095,-0.882 1072.729,-1.576 
		1071.313,-0.884 1071.636,-1.747 1069.244,-1.191 1068.303,-1.489 1069.207,-0.834 1066.678,-1.6 1066.507,-0.639 1065.111,-1.21 
		1066.078,-0.638 1064.215,-1.706 1063.328,-1.436 1063.119,-0.608 1062.715,-0.217 1062.078,-1.061 1059.665,-0.422 
		1059.861,-1.035 1059.275,-1.859 1058.824,-0.316 1057.454,-0.642 1055.75,-0.819 1056.112,-0.517 1054.152,-1.629 
		1053.707,-0.835 1054.177,-1.572 1053.151,-1.936 1050.675,-0.191 1050.214,-1.234 1050.417,-1.004 1048.391,-0.592 
		1048.048,-0.97 1046.729,-1.657 1047.07,-0.919 1046.551,-0.293 1045.777,-0.818 1043.555,-0.799 1044.396,-0.3 1043.403,-1.454 
		1042.98,-1.878 1040.462,-0.338 1041.304,-0.558 1039.509,-1.658 1038.92,-1.728 1038.938,-1.89 1037.507,-1.745 1036.179,-0.003 
		1036.078,-1.887 1034.268,-1.873 1033.752,-0.43 1033.07,-1.367 1032.132,-1.833 1031.634,-0.166 1031.212,-1.273 1029.204,-0.6 
		1028.686,-0.699 1029.428,-1.052 1027.609,-0.222 1026.152,-1.966 1026.796,-0.735 1024.982,-1.128 1024.133,0.032 
		1024.469,-1.818 1022.935,-0.937 1021.369,-1.462 1020.769,-0.397 1021.02,-1.803 1020.088,-1.496 1018.737,-0.271 1018.86,-1.253 
		1017.99,-1.805 1015.482,-1.745 1016.219,-0.36 1013.963,-0.392 1014.184,-1.149 1012.96,-0.815 1013.174,-0.708 1011.797,-0.893 
		1011.799,-1.914 1010.194,-1.784 1008.479,-0.514 1008.919,-0.169 1008.501,0.086 1006.623,-0.884 1005.327,-0.416 
		1005.676,-1.375 1004.316,-1.198 1004.185,-0.958 1003.837,-0.861 1002.827,-1.481 1001.176,-0.358 1000.674,-0.128 
		999.439,-1.292 999.729,-1.86 998.762,-0.6 998.05,-1.421 997.053,-0.307 996.441,-0.729 994.129,-1.597 993.359,-1.372 
		992.901,-0.78 991.764,-0.78 991.055,-1.343 990.368,-0.031 990.383,-0.911 988.446,-1.007 988.488,-1.169 987.926,-1.764 
		986.905,-1.138 986.779,0.104 986.311,-0.679 985.497,-1.244 983.812,0.054 983.449,-0.908 982.583,-1.604 980.62,-1.825 
		980.365,-1.796 978.772,-0.881 979.059,-1.113 978.217,-1.129 977.162,-1.643 976.673,-1.315 976.052,-0.924 975.382,-0.149 
		974.084,-0.143 973.501,-0.375 973.359,-1.238 971.95,-0.364 970.59,-1.594 969.718,-1.417 968.652,-0.723 969.521,0.179 
		967.453,-0.557 966.158,-0.347 965.47,-1.866 964.779,-0.834 964.642,-0.626 963.141,-1.723 963.82,-0.262 962.343,-0.683 
		960.302,-0.914 960.153,-0.117 959.377,-0.197 959.83,-0.008 958.542,-1.167 956.607,-1.391 957.419,-0.707 955.579,-0.317 
		955.436,-0.073 954.976,-0.511 953.721,-1.482 951.585,0.106 952.493,-1.964 951.061,-0.378 949.78,-1.701 948.961,-0.83 
		948.471,-0.448 948.677,-0.25 947.628,-1.062 946.059,-1.01 945.873,-1.637 945.235,-1.016 944.099,-1.334 943.26,-0.475 
		942.58,-0.652 942.004,-0.188 941.28,-0.304 938.961,-0.978 939.627,-1.414 937.443,-0.966 936.43,-0.535 935.932,-1.754 
		936.415,-0.878 934.724,-1.833 933.846,-0.884 934.283,-0.746 932.254,-1.855 932.49,-1.484 930.271,-1.302 929.777,-0.821 
		928.58,-1.829 927.897,-0.555 928.041,-1.253 928.126,-0.185 926.301,-0.731 925.128,-0.829 924.458,-0.396 924.793,-1.551 
		923.515,-0.992 921.855,-1.384 922.046,-0.333 921.087,-1.468 920.359,-1.383 919.001,-1.124 919.653,-0.745 916.959,-0.717 
		916.185,-0.841 916.871,0.007 916.032,-0.784 914.726,-0.094 913.651,-0.174 912.408,-0.729 913.001,0.156 913.083,-0.359 
		913.234,0.33 912.259,1.092 911.32,-0.013 910.635,0.048 909.171,0.583 908.033,0.455 906.933,-0.693 906.221,0.064 906.166,0.243 
		905.673,-0.877 904.04,-0.745 903.994,-0.41 903.042,-0.339 902.096,-0.387 902.115,-0.223 900.198,0.575 899.818,-0.465 
		899.417,0.699 898.859,0.556 897.569,-0.017 896.702,-0.41 896.465,0.494 895.379,-0.162 894.013,0.865 892.998,0.227 
		893.188,0.733 891.948,0.111 890.475,-0.871 889.579,0.891 889.559,0.301 888.148,-0.485 887.498,-0.855 885.729,-0.2 
		885.495,0.063 884.613,0.035 883.935,-0.119 882.786,0.301 883.544,0.353 882.751,-0.677 881.583,0.043 880.353,0.015 
		880.091,0.971 879.608,-0.186 877.405,-0.696 877.518,0.555 875.412,-0.359 875.22,-0.438 874.979,-0.119 874.853,-0.46 
		872.457,0.438 873.204,-0.209 870.822,-0.502 870.897,0.581 870.501,-1.043 869.346,-0.358 867.59,0.806 867.755,0.862 
		867.448,-0.979 865.674,-0.69 865.121,-0.164 864.778,0.361 862.931,0.138 862.852,0.244 861.609,0.095 862.883,0.798 
		861.213,-0.75 860.56,0.043 859.393,-0.563 858.978,-1.305 859.573,-0.338 857.183,-1.36 856.604,-0.092 857.191,-0.464 
		855.14,-0.17 854.489,-1.347 854.295,-0.186 852.086,-0.607 852.253,0.094 852.04,-1.508 850.288,-0.799 849.176,-0.407 
		849.315,-0.608 847.496,-0.098 847.512,0.105 845.986,-0.588 846.662,-0.71 844.076,-1.585 843.497,-0.001 843.66,0.064 
		842.583,-1.635 842.105,-0.559 841.722,-1.172 840.794,-0.135 838.914,-0.468 839.688,-0.618 838.432,-1.365 836.602,-0.875 
		836.354,-0.409 835.757,-0.519 835.43,-1.333 834.252,-0.402 833.361,-0.479 832.362,-1.312 832.434,-1.468 831.582,-1.764 
		829.25,-0.477 829.213,-1.131 827.407,-1.528 827.963,-1.71 826.509,-1.137 825.263,-1.016 824.34,0.03 824.402,-0.822 
		823.458,-0.994 822.953,-1.711 821.08,-0.725 821.935,-1.803 819.707,0.001 819.223,-1.223 818.633,-1.737 817.14,-0.382 
		816.731,-1.013 815.298,-1.704 814.514,-1.841 814.381,-1.614 812.91,-1.122 813.071,-0.241 811.669,-1.145 812.451,-0.805 
		811.083,-0.375 810.585,-0.966 809.066,-1.427 808.404,-0.257 807.343,-1.391 805.914,-1.729 806.065,-0.504 805.762,-0.387 
		804.438,-1.628 803.791,-1.563 802.952,-1.334 801.9,-1.811 801.597,-1.321 799.428,-0.262 798.691,-1.996 799.626,-0.447 
		797.443,-1.325 796.363,-1.21 796.451,-0.937 796.056,-1.613 793.718,-0.725 793.893,-0.092 793.274,-0.367 791.913,-0.624 
		791.344,-0.423 790.622,-0.126 789.273,-0.081 789.631,-1.149 787.74,-0.765 786.871,-1.354 786.37,-0.737 786.153,-0.826 
		784.489,-1.867 784.129,-0.249 783.269,-0.081 782.859,-0.432 781.813,-1.669 780.923,-0.104 779.693,-1.269 779.519,-0.835 
		778.227,-1.439 777.689,-1.268 776.674,-1.417 775.935,-0.447 776.365,-0.405 774.223,-0.713 774.376,-0.705 773.366,-0.925 
		771.657,-0.107 771.906,-0.354 770.102,-0.682 769.442,-1.728 768.358,-0.055 768.735,-1.642 767.297,-1.562 767.384,-0.747 
		765.439,-1.119 765.148,-1.5 765.086,-1.499 764.239,-1.761 761.822,-0.909 762.43,-0.931 761.051,-1.823 759.777,-0.765 
		760.327,0.118 757.964,-0.325 758.16,-1.093 758.059,-0.095 755.85,-1.872 755.473,-1.186 754.721,-1.43 753.63,-0.64 
		753.137,-1.158 751.389,-1.629 751.16,-1.492 751.273,-0.206 750.657,-1.396 748.589,-0.563 747.499,-1.537 747.165,-1.971 
		747.3,-1.51 746.792,-1.092 745.454,-0.904 743.831,0.031 744.306,-0.872 743.318,-1.768 741.44,-0.65 741.699,-1.715 
		741.04,-1.661 738.782,-1.079 738.194,-1.189 736.956,-1.067 736.602,-0.017 736.031,-0.995 735.41,-1.42 734.366,-1.484 
		733.365,-0.778 732.971,-0.159 732.586,-0.672 731.361,-0.732 731.528,-0.505 730.654,-0.829 729.465,-1.481 727.991,-0.681 
		726.662,-0.425 726.285,-1.561 726.171,-1.854 724.136,-0.635 723.38,-1.971 724.342,-1.162 723.145,-0.787 721.507,-1.72 
		720.656,-1.567 719.309,-1.319 718.956,-1.848 718.243,-1.738 717.065,-0.471 716.173,-2 715.557,-1.799 716.229,-1.839 
		715.111,-1.392 714.604,-0.928 713.772,-0.925 713.203,-0.36 712.354,-1.247 711.213,-0.027 709.87,-1.176 709.931,-0.686 
		707.371,-1.481 706.778,-1.212 706.54,-0.768 705.321,-1.294 704.086,-0.289 704.634,-1.309 703.188,-0.904 703.283,-0.327 
		701.282,-0.414 700.9,-0.258 700.355,-1.664 699.625,-1.858 698.472,-0.878 698.347,-1.213 697.261,-1.653 695.972,-1.768 
		695.045,-0.632 694.613,-0.267 694.061,-0.605 692.585,-1.088 691.441,-1.425 690.989,0.062 690.48,-1.433 689.206,-1.749 
		689.671,-0.954 688.484,-0.213 688.02,-1.628 685.914,-1.649 686.488,-0.856 684.065,-0.387 683.989,-1.792 683.476,-1.362 
		683.102,-0.344 682.16,-0.179 680.916,-1.663 681.248,-0.989 679.577,-1.405 678.424,-0.694 678.261,-0.156 677.24,-0.335 
		676.53,-0.703 674.754,-0.338 675.433,-1.75 673.904,-1.537 672.771,-1.919 672.462,-1.906 671.114,-0.289 671.198,-0.026 
		670.563,-0.382 668.962,-0.486 669.175,-1.355 667.635,-1.446 666.866,-1.286 666.368,-1.042 666.013,-1.678 663.965,-0.046 
		663.711,-1.309 663.394,-0.53 662.128,-1.305 660.596,-1.518 659.415,-0.226 660.102,-0.52 658.435,-1.038 657.123,-1.391 
		656.246,-0.539 656.813,-1.068 655.667,-1.448 655.498,-0.849 653.156,-0.814 652.211,-1.14 651.937,-0.991 650.829,-0.006 
		650.856,-0.56 650.274,-1.296 648.122,-0.991 648.167,-0.11 648.189,-2.024 647.503,-1.583 646.594,-0.128 644.489,-0.398 
		644.553,0.208 643.601,-0.909 641.785,-1.171 641.486,-0.924 640.13,-0.962 639.791,-1.444 638.965,-1.727 638.716,-1.443 
		637.236,-1.331 637.385,-1.217 636.317,-0.397 635.911,-0.14 634.464,-1.491 633.628,-0.87 632.771,-1.327 631.741,-1.421 
		631.641,-0.113 631.458,-0.883 629.685,-0.421 629.595,-0.663 628.958,-0.674 627.002,-0.852 626.63,-1.492 625.695,-0.218 
		625.854,-1.657 624.898,-1.634 624.11,-0.021 622.508,-1.208 621.501,-0.609 621.398,-0.054 620.849,-1.277 618.572,-0.771 
		619.321,-0.537 618.635,0.008 616.249,-0.002 616.922,-0.553 614.734,-1.385 613.945,-0.475 613.158,-1.773 612.838,-0.067 
		611.323,-0.494 611.36,-0.244 609.708,-1.166 609.594,-0.477 608.066,-0.039 607.985,-1.756 607.447,-1.045 607.563,-1.563 
		605.057,-0.412 605.743,-0.798 605.006,-0.153 603.833,-0.69 602.114,-0.046 600.936,0.038 601.603,-1.492 600.581,-0.249 
		600.021,-0.948 599.158,-0.919 598.025,-0.256 596.112,-1.006 596.712,-1.179 594.892,-1.101 593.946,-1.112 594.836,-0.609 
		594.081,-1.054 591.431,-1.279 592.143,-1.101 589.92,-0.831 589.373,-1.803 588.471,-1.829 587.459,-0.303 586.53,-1.262 
		585.891,-0.816 585.259,-0.615 584.513,-0.421 584.213,-0.59 583.55,-0.303 583.556,-1.374 582.175,-0.436 581.513,-0.45 
		581.164,-1.674 578.574,-0.075 578.501,-1.439 577.8,-1.326 576.681,-1.106 577.16,-0.491 575.157,-1.317 575.399,-1.215 
		574.75,-0.774 572.59,-2.037 571.622,-1.919 571.175,-0.837 570.625,-1.07 569.835,-0.558 568.917,-1.617 567.963,-0.524 
		566.978,-1.017 566.144,-0.465 565.803,-0.801 565.331,-0.62 563.707,-1.003 563.908,-0.975 563.592,-1.669 561.125,-0.991 
		561.995,-1.827 560.177,-0.246 560.062,-1.593 559.467,-0.888 557.341,-1.247 557.662,-0.607 555.416,-1.343 555.667,-1.719 
		553.754,-0.588 553.537,-0.18 552.19,-1.555 551.687,-0.684 551.89,-0.335 549.685,-0.743 550.593,-0.19 548.881,-1.717 
		548.642,-1.472 547.461,-1.626 547.528,-0.08 546.822,-1.489 545.109,-0.902 545.089,-0.512 543.814,0.018 543.356,-1.128 
		541.432,-1.242 542.016,-1.132 540.687,-2.004 539.115,-0.394 538.312,-0.013 537.793,-0.137 536.487,-0.603 536.878,-0.136 
		535.549,-0.258 533.986,-0.176 534.302,-0.217 532.076,-0.094 532.785,-1.43 530.593,-1.411 530.734,-0.416 528.989,-0.669 
		529.561,-1.853 527.299,0.049 526.892,-1.47 527.032,-0.746 525.853,-0.428 525.625,-0.686 524.261,-1.116 522.757,-1.357 
		523.163,-1.324 521.402,-0.732 521.437,-1.767 521.243,-0.447 519.066,-0.804 518.554,-0.64 517.736,-0.824 517.602,-1.427 
		515.518,-1.268 515.241,-1.687 515.279,-0.534 514.169,-1.357 512.855,-0.402 512.801,-0.019 511.792,-1.316 511.186,-0.881 
		509.645,-1.285 509.708,-0.66 508.572,-1.74 507.614,-0.836 506.228,-0.364 505.781,-0.459 504.818,-1.671 503.558,-0.632 
		504.328,-0.481 501.76,-1.262 502.695,-0.602 500.208,0.012 499.563,-0.274 499.108,-0.772 499.458,-1.338 497.978,-1.294 
		496.8,-1.077 496.9,-1.146 496.113,-1.892 495.563,-1.834 494.427,-1.605 493.063,-1.215 492.803,-1.048 492.313,-0.52 
		490.688,0.043 489.047,-1.047 488.96,0.078 488.363,-1.769 487.86,-0.478 486.53,-0.979 486.443,-0.679 484.167,-0.432 
		484.294,-1.427 483.238,-0.389 483.071,-0.965 482.75,-0.953 481.185,-1.876 479.532,-1.961 479.084,-1.681 478.514,-0.837 
		476.897,-0.542 477.502,-0.889 476.444,-1.836 474.697,-0.585 475.297,-1.657 473.227,-0.754 472.533,-1.379 472.096,0.11 
		471.156,-0.78 471.288,-0.952 469.189,-1.018 469.962,-1.423 467.988,-0.765 466.394,-1.618 465.951,-1.126 465.927,-0.792 
		465.085,-1.02 463.69,-1.694 464.196,-0.285 462.639,-0.563 461.126,-0.123 461.578,-0.566 460.246,-0.581 459.188,-0.809 
		458.458,0.021 457.663,-1.705 456.95,-0.038 457.18,-1.584 455.869,-1.533 455.221,-0.508 454.225,-0.259 453.701,-0.875 
		452.944,-1.396 452.346,-0.529 450.033,-0.342 450.804,-0.61 448.248,0.103 448.056,-1.067 446.8,-0.628 446.041,-1.144 
		446.616,-1.456 445.21,-1.874 443.393,-0.227 443.576,-1.379 441.612,-1.549 441.491,-0.371 441.356,-0.365 439.995,-1.474 
		439.949,-0.789 438.333,-0.832 438.433,-0.465 436.89,-0.102 437.174,-1.57 435.54,-0.242 434.047,-0.299 434.536,-1.116 
		432.134,-1.649 432.916,-1.343 430.43,-1.597 431.565,-0.476 429.733,-1.571 429.12,-0.07 427.702,-1.817 428.306,-1.817 
		427.229,-1.147 424.931,-0.9 424.521,-1.182 423.995,-0.588 424.33,-1.06 422.799,-1.749 422.541,-1.585 421.606,-1.599 
		420.736,-0.6 419.98,-0.292 418.426,-0.003 418.627,-1.556 416.32,-1.283 416.184,-0.496 416.018,-0.555 415.114,-0.914 
		413.583,-1.006 413.321,-0.855 412.166,-0.647 412.119,-1.522 409.684,-0.461 408.977,-1.689 409.571,-1.548 407.487,-1.335 
		408.292,-1.329 405.911,-1.558 406.673,-1.81 405.544,-0.977 403.155,-1.505 402.709,-1.399 402.06,-0.597 402.24,-1.06 
		401.513,-0.743 400.974,-1.718 399.869,-1.701 398.678,-0.404 396.843,-0.053 397.361,-1.018 397.058,-1.841 395.52,-0.495 
		394.067,-1.7 394.231,-1.802 392.971,-0.118 392.234,-0.179 391.85,-1.045 391.221,-0.818 390.121,-1.319 388.706,-0.499 
		387.265,-0.871 387.733,-0.967 386.766,-0.036 386.171,-1.366 385.176,-1.465 383.491,-0.83 383.674,-1.343 382.332,-0.534 
		381.057,0.03 380.662,-0.937 379.842,-1.152 379.786,-0.545 379.551,-1.352 378.282,-0.896 377.022,-1.013 376.67,0.064 
		374.595,-0.851 375.34,-0.047 372.829,-0.582 372.295,-0.005 371.817,-1.007 370.979,-0.734 370.678,-1.819 369.653,-0.481 
		368.004,-0.362 367.299,-1.005 366.64,-0.356 366.592,-0.701 365.133,-0.858 364.596,-0.586 364.578,-0.779 363.402,-0.478 
		363.163,-1.305 361.89,-1.289 360.69,-0.796 359.91,-0.315 359.41,0.049 357.719,-0.76 358.197,-1.948 356.377,-0.891 
		355.375,-0.854 356.193,-0.152 355.173,-1.551 353.976,-0.374 353.214,-0.545 353.104,-1.216 351.067,-0.773 351.48,-0.045 
		350.097,-0.208 349.583,-1.382 347.526,-1.44 347.156,-0.531 346.438,-0.724 345.737,-1.463 344.794,-1.193 344.631,-1.518 
		343.18,-1.624 341.697,-1.392 342.212,-0.313 340.736,-1.49 340.086,-1.114 339.027,-0.015 337.573,-0.172 338.715,-0.267 
		336.547,-1.481 336.89,-1.423 335.325,-0.115 335.229,-1.018 332.961,-0.688 333.198,-1.905 331.976,-0.016 331.832,-1.668 
		331.194,-0.318 330.371,-1.732 328.968,-0.271 328.701,-0.52 327.629,-1.218 325.636,-1.929 325.724,-0.773 325.904,-0.235 
		324.954,-1.124 322.469,-0.747 322.833,-1.056 320.765,-1.18 320.788,-1.554 320.67,-1.066 319.715,-0.131 318.423,-1.896 
		316.948,-1.198 316.925,-1.406 315.352,-0.456 314.974,-0.132 313.531,-1.63 314.435,-0.983 312.028,-1.794 311.14,-0.313 
		311.692,-0.968 311.093,-1.134 309.268,-1.609 309.246,-0.25 307.425,-1.028 306.663,-1.047 306.74,-1.731 306.088,-0.547 
		305.557,-1.896 304.293,0.15 304.177,-0.535 301.713,-1.98 301.124,-0.919 301.11,-0.163 299.61,-0.914 299.766,-0.35 
		298.802,-0.965 297.812,-1.584 296.752,-0.549 295.487,-0.884 296.078,-0.657 293.95,-1.892 294.603,-0.318 293.721,-1.285 
		291.926,-0.169 291.47,-0.33 290.789,-1.857 290.391,-1.034 289.34,-1.305 287.653,-1.309 288.227,-0.849 286.279,-1.74 
		285.901,-0.363 285.662,-0.259 283.841,-0.973 283.588,-0.712 281.5,-1.607 281.557,-0.434 281.427,0.102 279.366,-0.902 
		278.507,-1.974 277.81,-1.658 277.158,-1.852 277.617,-0.403 276.988,-1.593 276.011,0.091 274.294,-1.419 274.29,-1.107 
		272.449,-1.325 272.187,-0.787 272.066,-1.139 270.704,-1.263 270.311,-1.521 268.644,-1.811 267.981,-0.056 268.287,0.006 
		265.592,-0.583 264.72,-1.156 264.127,-1.125 263.143,-1.684 262.478,-0.264 262.544,-0.58 261.005,-1.417 260.642,-0.972 
		259.418,-1.643 258.9,-0.838 257.527,0.002 257.334,-1.387 256.819,-0.011 256.547,-1.356 255.748,-0.844 254.908,-0.767 
		253.035,-1.698 251.912,-0.819 251.076,-1.749 252.095,-1.007 249.763,-1.167 249.611,-0.075 248.275,-0.563 247.348,-0.581 
		247.628,-0.316 247.449,-0.243 244.878,-2.006 244.959,-1.016 244.816,-2.03 242.821,-1.336 243,-1.075 240.976,0.01 
		240.444,-1.016 239.264,-1.278 240.151,-1.631 238.49,-0.662 236.659,-0.6 235.933,-1.276 236.586,-0.959 235.742,-1.342 
		235.439,-0.994 233.869,-1.797 233.712,-1.825 232.37,-0.296 231.904,-0.657 231.268,-1.981 230.556,-1.124 229.128,-0.96 
		227.106,-0.078 226.707,-0.979 226.12,-0.955 225.784,-1.448 224.713,-1.239 224.215,-0.278 223.253,-0.614 222.129,-1.378 
		221.029,-1.145 220.25,-0.679 220.037,-1.913 219.533,-0.01 217.491,-1.398 217.624,0.086 216.056,-1.776 215.475,-1.678 
		216.014,-1.872 214.485,-0.912 214.451,-1.713 212.488,-1.028 212.999,-1.003 211.624,-0.855 209.997,-1.769 210.111,-1.14 
		208.208,-0.295 208.896,0.109 206.846,-0.744 205.569,-0.886 206.487,-1.267 204.22,-1.083 203.676,-1.121 203.203,-0.062 
		201.736,0.042 201.002,-1.355 201.401,-1.564 200.334,-0.911 198.255,-1.576 199.284,-1.767 197.625,-1.664 196.508,-1.529 
		196.506,-1.752 194.369,-1.703 193.567,-0.457 192.871,-0.768 193.557,-1.205 191.169,-0.725 190.48,-1.731 190.655,-0.78 
		188.738,-1.7 188.898,0.011 187.815,-0.595 186.34,-1.659 187.147,-1.316 186.554,-1.677 185.306,-0.926 183.317,-1.541 
		183.026,-0.49 183.199,-0.406 182.426,-1.621 180.888,-1.421 179.206,-0.212 179.051,-1.119 177.898,-1.524 177.438,-0.554 
		176.95,-0.238 176.928,-1.534 175.246,-0.351 174.476,-1.506 173.768,-0.335 173.088,-0.153 171.067,-0.444 171.683,-1.655 
		170.803,-1.753 170.463,-0.4 168.341,-0.309 168.399,-1.144 167.259,-1.271 166.496,-0.941 166.513,-1.241 164.261,-1.58 
		164.121,-0.501 163.974,-0.767 161.923,-0.834 162.138,-0.037 160.136,-0.111 160.571,-0.955 159.54,-0.416 157.852,-1.305 
		158.198,-0.82 157.049,-1.152 156.878,-0.841 155.245,-0.907 153.547,-1.137 154.352,-1.203 153.127,-0.415 151.168,-0.995 
		151.727,0.209 151.271,-1.352 148.792,-1.321 149.767,-0.004 147.662,-0.635 146.965,-0.451 146.111,-0.543 145.524,-1.689 
		145.568,-0.826 144.237,-0.117 142.312,-1.001 142.503,-1.853 141.556,-0.828 141.678,-1.418 139.522,-1.894 139.172,-1.854 
		138.773,-1.336 138.146,-0.859 137.418,-1.603 135.127,-0.272 135.729,-1.845 134.435,-1.229 132.798,-0.245 133.337,-1.374 
		132.856,-0.389 131.555,-1.625 129.607,-1.265 130.481,-1.546 128.298,-0.693 127.692,-1.432 128.079,-0.988 126.647,-0.386 
		126.056,-1.777 124.14,-1.788 124.187,-1.149 122.951,-0.481 123.204,-1.153 121.277,-0.605 120.354,-0.501 119.18,-0.486 
		119.672,-0.607 118.537,-0.175 118.412,-1.181 116.6,-0.406 116.623,-1.655 115.874,-1.797 113.843,-0.24 113.004,-0.313 
		112.071,-0.123 112.938,-0.75 112.01,-1.596 109.456,-1.867 108.885,-0.287 108.034,-1.913 108.148,-1.777 108.189,-0.405 
		107.335,-0.415 104.992,-0.291 105.148,-1.166 103.546,-0.626 103.032,-0.402 101.771,-1.056 102.593,-0.897 101.076,-0.693 
		99.056,-0.952 98.422,-0.886 98.661,-1.771 97.663,-1.565 96.958,-0.848 95.366,-1.314 94.33,-0.408 94.638,-1.834 92.809,-0.611 
		93.002,-1.575 92.668,-0.457 91.141,-1.566 89.628,-1.172 89.216,-0.757 88.761,-1.614 88.654,-0.152 86.697,-1.451 86.759,-0.016 
		86.452,-1.73 84.215,-1.464 83.446,-0.362 82.261,-1.331 81.643,-0.622 82.016,-1.288 80.876,0.072 80.625,-0.158 78.791,-1.549 
		78.401,-0.48 78.324,-0.677 76.126,-0.001 75.487,-1.252 74.838,-1.081 74.571,-0.234 74.199,-1.856 72.39,-0.1 72.579,-1.599 
		72.156,-0.286 69.64,-0.591 69.622,-0.934 69.008,-0.649 67.763,-0.979 66.296,-0.015 65.912,-1.417 65.519,-1.382 64.668,-1.139 
		64.756,-1.781 62.604,-0.5 61.882,-0.413 61.891,-1.781 61.148,-1.065 60.313,-0.6 59.617,-0.499 58.334,-1.947 56.855,-0.657 
		56.352,-1.108 55.365,-0.761 55.72,-0.437 54.586,-1.592 53.1,-0.636 51.855,0.048 51.893,-1.024 51.298,-1.773 50.618,-0.282 
		49.285,-1.41 49.614,-0.732 48.276,-0.356 46.561,-1.919 47.29,-1.196 45.142,-0.626 45.36,-1.579 44.796,-1.898 42.19,-0.618 
		42.271,-0.971 42.216,-0.502 40.142,-1.991 40.042,0.075 38.939,-0.704 38.497,-1.523 36.652,-0.693 37.513,-0.42 36.336,-1.584 
		34.534,-1.452 34.327,-1.527 32.807,-1.542 33.396,-1.64 32.745,-0.868 30.39,-0.663 29.683,-0.143 29.025,-0.885 28.146,0.067 
		27.425,-1.623 27.842,-1.703 26.262,-0.361 24.961,-0.252 24.631,-0.746 24.478,-1.18 22.294,-0.778 22.837,-1.737 21.412,0.015 
		20.502,-0.562 19.365,-0.118 18.922,-1.762 17.308,-1.833 17.282,-0.761 17.069,-0.449 15.47,-0.254 14.159,-0.264 14.218,-1.347 
		14.458,-1.924 13.651,-1.604 11.218,-0.267 11.208,-0.764 9.461,-0.904 10.367,-1.624 8.223,-0.886 7.996,-1.772 7.463,-1.175 
		5.823,-0.801 4.674,-0.85 5.579,-1.423 3.235,-0.292 3.505,-1.423 2.206,-0.021 1.22,-0.37 1.139,-1.124 -0.31,0.645 -0.171,1.098 
		-1.127,2.255 -0.664,2.832 -0.816,3.897 -0.647,4.187 0.084,4.837 -1.68,6.342 -0.628,6.994 -1.478,7.548 -0.346,8.2 0.08,8.516 
		-1.276,9.702 -0.111,11.051 -0.961,11.675 -0.255,11.053 -1.59,12.724 -1.339,13.51 -0.375,14.194 -1.53,15.108 -1.393,15.371 
		-1.178,17.511 -0.724,16.874 -0.94,17.453 1.206,17.744 1.389,17.452 2.114,18.673 2.552,18.607 4.658,17.484 5.359,16.821 
		5.98,17.394 6.661,18.299 8.036,17.695 8.831,17.639 7.947,16.962 9.266,17.211 11.213,16.352 11.654,18.201 12.718,16.923 
		12.301,17.463 13.625,17.655 13.455,17.825 15.32,17.13 16.13,18.143 15.918,17.952 16.563,18.677 17.318,18.33 19.697,18.639 
		19.939,18.173 20.351,18.037 20.382,17.38 21.196,18.064 22.236,18.387 22.752,18.132 22.811,18.772 23.878,18.784 25.839,18.282 
		25.504,19.067 26.637,18.963 27.054,17.934 28.251,18.064 28.508,19.171 29.082,19.646 31.462,19.136 30.704,19.666 32.932,18.402 
		33.661,18.794 34.78,18.677 34.75,18.231 35.611,19.19 35.476,17.995 36.663,19.535 38.87,18.815 37.863,19.199 40.58,18.623 
		40.556,18.904 41.727,18.451 42.238,18.921 43.07,18.046 44.09,17.603 44.021,17.827 44.753,17.78 45.979,17.312 46.747,17.161 
		47.664,17.717 47.602,17.341 50.022,16.045 49.643,16.609 50.6,15.925 52.508,16.035 51.639,17.242 52.408,16.06 53.692,17.575 
		54.718,16.307 55.601,17.735 56.81,17.641 57.301,17.139 58.398,16.714 58.354,17.595 58.978,17.677 59.541,17.875 62.018,17.044 
		62.359,16.287 62.723,16.427 64.233,16.374 64.895,16.016 64.673,16.157 65.043,17.058 66.495,16.79 66.305,16.802 68.824,16.513 
		69.044,15.633 68.665,15.605 69.706,14.905 71.121,15.647 72.722,14.001 73.114,14.692 72.796,14.497 73.529,13.84 75.673,14.455 
		75.529,13.754 77.821,14.635 78.098,13.517 79.307,13.155 79.532,14.217 80.969,13.74 80.989,14.501 80.938,14.18 83.287,14.222 
		83.836,13.51 84.351,13.216 85.75,13.775 85.613,12.842 87.04,13.267 88.168,12.597 88.036,13.967 88.362,12.805 90.426,13.708 
		91.208,13.521 91.056,12.854 91.563,14.959 92.454,14.6 94.718,14.611 95.367,15.063 95.596,14.354 96.16,14.338 96.506,15.637 
		98.196,15.425 97.65,14.656 99.54,14.872 99.054,14.481 100.355,15.237 102.088,14.73 101.815,15.633 103.818,14.938 
		103.35,15.859 105.271,15.679 104.978,14.843 105.416,15.898 106.748,14.917 108.222,16.42 108.229,15.947 109.853,15.773 
		111.052,16.209 110.749,15.724 112.697,14.804 113.233,15.938 113.701,14.893 115.172,16.6 115.523,16.087 116.603,15.318 
		116.543,15.226 116.966,16.127 118.759,14.981 119.325,15.915 120.409,16.18 121.118,15.73 121.709,15.633 121.845,15.019 
		122.538,15.824 124.578,15.913 125.384,15.127 124.552,16.066 126.507,16.083 127.951,15.895 128.111,15.561 127.812,15.572 
		129.228,14.148 129.74,15.507 131.563,15.779 132.28,15.406 132.235,14.553 133.267,14.254 133.716,14.947 134.699,14.73 
		136.414,15.386 136.574,15.823 136.818,15.183 137.835,15.298 138.645,16.072 140.659,15.446 141.481,15.901 141.497,15.205 
		141.996,14.661 143.193,15.104 143.931,16.065 143.769,15.454 146.013,16.275 146.071,14.876 146.382,15.981 147.92,16.464 
		148.121,16.314 150.347,16.694 150.982,15.613 151.192,17.268 151.806,17.372 151.85,16.643 153.968,17.055 154.826,16.056 
		155.357,17.923 155.292,17.02 157.445,17.278 156.607,18.481 157.297,18.581 159.252,17.704 160.495,18.718 160.308,18.116 
		160.977,19.727 162.064,19.998 162.592,19.225 163.848,20.311 165.36,20.685 164.294,20.796 166.916,19.971 166.208,19.936 
		167.389,20.468 168.152,19.978 170.237,21.066 170.756,21.123 171.631,21.145 170.861,20.986 171.79,20.918 174.133,21.303 
		174.226,21.833 174.17,21.332 175.766,20.376 176.877,20.786 177.063,21.309 177.567,21.139 178.606,22.017 179.684,22.128 
		180.304,20.626 180.474,20.748 181.393,21.159 183.775,21.579 184.013,20.414 185.199,20.718 184.207,20.732 185.639,20.841 
		185.447,22.294 185.984,21.315 187.229,21.846 188.687,22.402 188.272,21.513 189.375,21.563 190.347,21.856 192.583,22.156 
		192.27,22.229 193.315,22.258 193.267,22.327 194.506,22.216 195.965,21.56 197.173,23.233 196.892,21.73 198.87,21.828 
		198.833,22.247 199.98,23.346 199.815,23.053 202.138,21.763 201.514,23.236 203.166,23.511 203.325,21.899 204.938,23.405 
		204.436,23.9 205.409,22.262 205.802,23.611 206.498,23.985 207.709,23.744 209.395,22.952 209.947,23.845 210.402,23.857 
		211.258,23.882 211.763,24.795 211.998,24.795 214.188,24.896 213.749,23.902 215.318,24.177 216.408,23.765 216.683,24.407 
		218.537,24.925 218.513,24.331 219.055,25.737 219.372,26.237 220.32,26.558 221.309,25.825 222.98,25.528 222.783,26.042 
		224.391,27.351 224.222,27.756 225.903,27.632 226.193,26.654 226.96,26.826 227.595,27.422 228.266,25.937 228.338,26.261 
		229.093,27.056 229.604,25.561 230.387,25.968 233.047,25.63 233.537,25.503 233.968,24.255 233.583,25.28 234.643,24.588 
		236.191,25.465 237.107,24.838 237.122,24.627 239.137,24.664 239.251,26.229 240.558,25.161 240.758,24.889 241.849,26.105 
		243.045,26.426 242.647,26.775 244.787,26.636 245.151,26.208 245.228,26.601 246.717,26.576 247.243,26.252 248.687,27.032 
		249.423,27.255 249.291,26.012 250.649,27.006 250.18,27.33 251.359,26.012 251.744,25.259 253.553,25.896 253.522,25.228 
		255.775,24.884 256.563,25.725 256.814,25.153 257.599,25.146 258.279,24.667 258.68,25.736 260.479,24.668 259.535,24.472 
		261.154,25.546 262.769,25.2 263.333,24.612 264.654,26.252 264.72,24.653 265.969,26.472 265.678,26.76 267.582,26.118 
		267.288,26.816 269.206,25.839 270.236,27.234 269.949,26.172 271.462,25.834 271.152,26.92 272.189,25.534 272.488,26.901 
		273.555,26.888 274.9,26.758 275.888,26.271 276.345,26.227 277.702,26.446 277.481,26.042 278.315,27.358 278.965,28.008 
		280.61,27.095 280.314,27.521 281.258,26.642 282.762,26.618 283.222,26.684 283.83,27.273 284.131,25.967 286.272,27.052 
		286.884,26.19 287.69,27.327 287.986,26.682 288.503,26.15 290.595,25.168 290.919,25.181 291.47,24.86 291.844,26.21 
		292.673,25.696 293.503,25.983 294.726,25.507 295.638,24.717 295.504,24.328 296.112,24.508 296.571,24.263 298.448,23.814 
		298.768,24.669 300.917,25.479 299.746,24.566 301.332,24.928 303.27,23.242 303.107,24.021 303.997,23.808 303.726,23.114 
		306.25,24.996 305.351,23.187 306.64,23.411 307.862,23.434 308.526,24.476 308.491,24.736 311.004,24.895 310.538,24.742 
		311.021,24.866 313.243,24.62 312.608,24.727 314.747,24.164 315.682,24.341 315.273,24.322 315.418,24.461 317.224,25.616 
		317.706,26.088 318.057,26.343 319.139,25.929 319.464,25.201 321.536,24.979 322.648,25.359 322.841,24.984 322.437,24.979 
		324.6,24.668 324.888,23.648 326.092,24.534 327.463,23.054 327.146,24.12 328.733,23.717 327.984,23.285 330.479,22.644 
		331.221,22.884 330.408,22.859 331.646,23.292 332.203,22.993 334.164,22.733 333.542,22.356 335.147,22.413 336.003,23.34 
		336.785,21.419 336.907,23.023 338.894,22.602 339.619,21.301 340.894,20.999 340.961,22.479 342.528,22.315 342.358,20.49 
		342.534,21.647 342.991,21.259 343.834,20.214 346.414,20.38 347.054,20.551 347.346,20.595 348.723,20.766 349.611,20.766 
		350.019,20.154 349.847,20.39 351.98,20.53 352.309,20.037 353.634,20.165 353.546,19.091 354.632,18.743 355.187,20.141 
		355.159,19.472 356.955,19.09 358.256,19.741 358.009,19.142 359.052,20.27 359.016,20.004 361.643,20.166 361.227,21.374 
		362.572,19.902 362.788,21.49 363.108,21.476 363.772,21.587 365.626,20.486 366.116,20.309 366.269,21.369 368.007,20.584 
		367.86,22.056 369.005,22.311 369.576,22.616 371.612,21.849 371.931,22.258 372.92,22.245 374.104,22.244 373.345,22.579 
		373.943,23.047 374.463,22.959 376.329,24.719 377.109,23.09 376.56,24.449 378.368,25.155 380.011,24.198 379.289,24.729 
		381.307,24.406 382.144,24.053 381.594,24.572 383.143,24.683 383.762,24.021 384.365,24.584 385.42,25.483 386.565,25.172 
		386.359,24.434 386.899,24.825 389.655,26.006 390.052,24.947 389.452,25.232 391.52,25.752 392.559,25.335 391.761,24.637 
		392.941,25.255 395.071,24.303 395.764,25.456 394.986,25.731 396.996,25.014 397.287,24.098 398.226,24.003 398.575,25.637 
		399.321,24.728 399.839,25.065 400.753,23.74 402.088,25.027 403.162,24.15 403.407,23.294 403.558,23.933 405.739,22.896 
		406.225,24.613 406.644,24.228 408.662,23.871 408.766,22.634 408.231,23.203 410.473,21.716 410.389,22.947 411.311,21.945 
		413.236,21.008 412.287,22.07 413.625,21.512 413.973,22.102 414.533,20.082 416.266,20.55 417.691,19.754 417.158,20.361 
		418.948,20.327 418.619,20.201 419.947,20.136 420.378,18.775 420.645,20.044 421.777,19.251 423.463,18.901 424.871,19.319 
		425.178,19.809 424.831,18.494 426.02,18.719 426.544,18.47 427.166,19.16 429.437,18.213 429.223,18.607 430.002,17.638 
		431.145,17.809 431.697,17.577 432.84,19.228 433.134,17.661 433.407,18.858 435.419,17.298 435.91,17.158 436.405,17.794 
		437.838,17.163 437.684,17.046 440.043,18.447 439.265,17.215 441.481,17.115 441.766,17.158 442.342,16.587 442.597,17.743 
		443.985,16.21 443.66,16.313 446.304,17.198 446.659,16.685 446.45,16.779 446.835,16.676 447.643,14.946 449.509,15.704 
		450.57,14.836 450.507,15.378 451.453,13.467 451.999,13.98 452.864,14.528 453.363,12.932 455.043,13.589 455.343,12.954 
		454.95,12.804 455.71,11.1 456.835,10.272 456.947,10.086 458.637,9.63 459.178,9.873 459.124,9.953 460.516,10.712 
		460.439,10.351 461.204,10.214 463.177,8.902 464.384,10.345 463.309,9.867 464.14,9.446 465.97,8.546 466.746,9.631 
		466.606,10.061 468.732,9.11 469.639,9.517 469.087,9.598 470.546,9.003 471.762,9.36 471.338,8.502 472.739,9.455 473.611,9.418 
		475.086,8.527 475.698,9.612 475.829,8.831 476.624,8.458 477.204,9.318 478.657,8.762 479.475,8.889 479.386,8.781 481.18,9.043 
		481.454,8.793 481.939,9.377 482.574,10.098 483.792,9.587 485.437,10.075 486.394,11.437 485.746,11.296 487.6,11.605 
		488.019,11.578 489.043,11.432 490.513,11.72 490.825,11.518 491.021,11.086 491.68,11.268 492.471,11.74 493.31,12.354 
		495.653,12.512 495.675,11.398 495.498,11.999 497.875,12.352 498.868,13.399 498.246,13.414 499.708,12.556 499.963,12.899 
		502.021,13.232 501.686,12.617 502.415,12.984 503.339,12.325 505.172,11.755 506.32,12.874 505.769,12.994 506.623,12.561 
		507.274,13.252 508.827,13.663 508.479,13.114 509.2,13.829 509.871,13.088 512.526,12.866 511.699,14.413 512.696,12.844 
		514.748,13.211 515.642,14.071 516.164,13.723 515.899,13.941 516.834,13.307 518.189,12.822 517.965,11.837 519.911,12.624 
		521.085,12.767 521.755,12.904 521.373,11.869 522.301,12.111 522.652,11.026 523.885,10.855 523.979,12.224 525.681,10.551 
		525.448,11.14 527.01,11.917 528.63,10.578 529.222,11.205 529.601,10.616 530.587,11.433 530.682,10.541 531.121,10.118 
		531.668,10.001 533.483,10.647 535.052,10.133 535.193,11.392 535.467,11.123 537.458,9.562 536.805,11.321 539.023,11.173 
		538.013,10.363 539.392,9.566 540.328,9.419 542.304,9.646 541.695,9.75 542.03,9.774 542.827,9.445 544.204,9.602 545.832,8.81 
		545.705,8.365 547.341,9.178 547.176,7.886 548.179,8.547 548.649,7.531 549.597,7.159 550.056,7.383 551.912,7.102 552.245,7.079 
		552.378,7.505 553.079,6.933 555.08,5.601 554.964,6.774 556.385,4.908 556.593,5.371 556.64,5.294 558.571,5.875 559.541,4.37 
		559.876,4.172 561.573,5.563 562.067,4.872 561.512,4.117 562.917,4.282 564.319,4.417 565.351,4.817 564.681,5.254 566.729,5.187 
		567.452,4.395 568.44,3.966 567.972,4.31 568.933,4.668 570.892,4.105 570.862,4.326 571.497,4.272 571.68,4.881 573.654,5.771 
		574.244,5.245 575.892,6.352 576.135,6.373 576.723,5.016 577.264,5.54 578.203,5.222 578.273,5.69 580.558,6.922 579.782,5.86 
		581.109,5.917 581.347,7.668 582.95,7.35 583.172,6.241 583.786,6.856 584.207,7.71 586.239,7.136 585.823,7.124 586.968,7.885 
		587.609,6.752 589.131,7.902 589.331,6.914 589.63,7.822 590.581,7.325 592.499,9.242 593.365,8.782 592.857,8.4 593.775,8.51 
		594.005,8.975 595.56,9.705 596.771,9.128 597.509,10.792 598.154,9.498 599.143,9.992 599.076,9.031 599.994,9.331 600.27,9.632 
		602.751,10.184 603.639,9.443 603.381,10.695 603.538,9.808 606.063,10.378 605.455,11.1 606.023,10.926 607.32,10.647 
		608.481,9.055 609.817,9.529 609.007,9.29 609.891,10.041 610.555,10.09 612.898,8.734 612.746,9.279 614.479,7.998 614.084,9.202 
		614.891,7.854 616.667,8.99 617.457,9.089 618.86,8.85 619.515,9.341 618.618,10.062 619.363,8.675 620.432,8.305 622.644,9.033 
		623.232,9.558 623.382,9.18 624.622,9.524 626.07,10.414 626.658,9.169 627.681,8.859 628.349,10.214 628.999,9.57 629.682,10.287 
		630.632,10.395 629.816,9.638 631.272,10.667 632.273,9.971 633.621,9.41 632.957,9.701 634.67,10.503 634.596,10.842 
		635.528,9.198 636.826,9.638 637.466,9.476 638.483,9.192 640.465,10.191 639.817,9.163 641.293,8.819 642.39,10.688 642.43,9.066 
		644.506,9.533 645.024,10.509 644.424,10.497 646.293,10.659 647.228,8.766 647.429,8.825 648.143,9.907 649.885,10.449 
		650.493,9.211 650.428,10.606 651.652,9.326 652.618,10.069 652.268,9.845 653.097,9.109 655.022,10.333 654.873,9.588 655.6,9.39 
		656.727,9.44 658.389,10.188 658.393,8.97 659.473,9.839 660.002,8.615 661.172,10.457 662.999,10.544 661.905,8.787 
		663.635,9.651 663.698,10.652 664.39,10.467 666.543,9.386 667.462,9.205 667.752,9.146 668.66,10.246 669.045,10.279 
		669.95,10.985 669.81,10.163 671.46,9.559 673.085,11.199 673.105,10.314 673.09,10.861 675.703,11.704 676.451,11.409 
		675.578,10.603 676.293,10.739 678.7,10.253 678.546,10.816 678.833,11.822 681.153,11.221 681.168,10.621 681.801,11.917 
		682.024,11.563 684.414,11.953 683.833,11.078 684.747,10.941 685.234,11.051 687.493,10.26 687.963,10.462 688.963,12.028 
		688.399,10.242 689.387,10.382 691.328,12.152 691.735,11.669 691.742,11.916 693.853,11.355 694.635,11.319 694.381,10.805 
		695.889,12.481 696.316,12.257 696.588,12.816 698.267,12.991 698.617,12.434 700.036,13.405 698.779,13.629 699.667,13.475 
		700.15,14.169 701.16,14.142 700.543,13.972 701.777,14.156 700.928,13.71 700.89,12.835 702.072,13.18 704.384,13.757 
		704.663,13.593 706.002,14.108 705.814,14.298 707.025,13.952 707.373,14.767 709.227,13.644 709.592,14.482 710.546,15.007 
		709.884,15.966 711.65,14.641 711.752,15.222 712.309,15.295 713.687,16.324 715.323,15.256 716.176,14.402 715.771,15.337 
		717.917,15.835 716.986,14.684 719.101,15.497 718.577,14.164 720.515,14.261 720.605,14.892 721.724,14.12 722.861,13.385 
		723.276,13.615 723.504,12.882 724.254,13.979 726.07,13.673 725.781,13.972 728.288,12.951 727.82,13.746 729.107,13.598 
		730.4,13.181 730.683,14.643 732.294,14.934 732.972,13.885 733.722,13.381 732.987,14.362 735.465,14.121 735.899,14.637 
		737.204,14.084 737.575,15.124 738.849,13.924 737.89,15.523 739.656,15.143 739.417,14.257 741.657,15.902 741.19,14.919 
		743.561,15.671 743.244,16.717 744.363,16.82 743.985,16.08 745.374,17.689 746.22,16.067 747.336,16.453 747.568,18.122 
		749.528,17.642 749.723,18.197 749.723,18.542 750.152,18.094 751.264,17.326 751.489,17.187 752.599,17.29 753.592,18.655 
		754.323,17.446 755.572,17.447 756.289,18.052 757.852,19.072 758.375,17.608 759.495,17.464 759.652,16.686 760.177,17.97 
		761.04,15.732 761.739,17.5 761.369,17.006 763.84,15.275 763.668,16.358 765.122,16.094 765.429,14.365 766.35,14.445 
		766.342,14.04 766.936,13.581 768.943,13.962 769.333,13.2 770.909,14.15 771.555,13.952 770.841,12.741 772.838,12.419 
		773.945,12.628 772.944,12.32 774.562,11.989 774.735,13.182 775.245,10.894 776.347,12.1 777.236,10.723 778.117,11.075 
		778.582,10.438 778.819,10.297 780.409,9.39 780.753,10.032 781.068,9.902 783.687,10.349 784.341,8.523 783.645,8.815 
		785.634,8.879 786.47,8.764 786.134,9.519 787.308,9.662 787.751,8.1 789.463,8.106 789.746,8.279 791.021,8.349 791.844,9.21 
		793.146,9.01 793.727,8.755 794.117,9.729 795.242,8.264 795.79,8.626 796.736,9.468 796.571,8.111 798.13,9.733 798.593,9.336 
		798.583,9.54 800.101,8.116 801.113,9.089 801.136,9.816 803.375,9.08 803.905,9.157 804.183,10.237 805.419,8.984 805.816,9.569 
		807.47,8.941 808.355,9.915 808.988,9.008 810.185,9.227 809.869,9.097 810.109,9.234 810.809,10.49 812.176,9.99 813.925,11.28 
		814.087,9.675 815.702,9.686 814.914,11.155 816.881,10.739 817.272,9.359 817.383,9.599 818.441,11.014 820.488,9.124 
		821.306,10.446 820.754,10.302 821.862,10.876 823.07,9.883 824.019,9.807 824.682,10.539 825.698,9.743 826.545,9.131 
		827.366,8.921 827.382,8.479 827.443,9.653 828.805,8.688 830.345,9.637 830.519,8.906 831.824,9.131 831.645,7.95 832.471,9.048 
		834.535,8.423 835.51,7.956 834.8,8.293 836.124,8.263 836.319,8.539 837.171,8.442 837.673,9.22 839.544,7.697 839.367,7.387 
		841.707,8.945 842.361,7.51 842.925,7.325 843.609,8.068 843.42,7.441 845.315,8.011 846.625,7.366 846.843,8.05 848.075,7.742 
		847.531,7.277 848.713,7.5 850.232,6.257 851.378,7.317 852.113,6.51 853.008,6.138 852.872,6.958 852.771,5.983 853.476,5.692 
		855.854,6.612 856.867,6.008 857.338,6.557 856.712,5.142 857.6,5.155 859.686,5.646 860.633,5.151 860.207,4.521 860.964,3.555 
		862.125,4.193 862.321,1.706 861.898,2.718 861.529,1.197 862.227,1.061 863.354,0.653 863.981,0.012 864.934,1.191 866.12,1.654 
		867.201,0.465 867.442,1.563 868.623,2.011 868.686,1.918 868.683,4.041 868.775,4.688 870.219,4.05 870.954,5.826 871.161,4.832 
		872.659,5.415 872.598,5.932 873.312,4.698 874.049,5.689 874.172,5.512 876.486,4.625 876.157,5.35 876.423,4.917 877.147,5.489 
		879.126,3.882 878.625,5.065 879.437,5.599 881.778,5.745 880.652,6.468 882.887,5.209 883.524,6.358 884.282,5.018 883.961,6.45 
		885.765,5.691 886.201,6.426 887.674,5.991 886.918,5.053 888.512,5.591 889.563,5.998 889.309,5.546 890.827,4.955 890.776,5.411 
		892.292,6.373 893.395,6.57 893.846,5.062 895.036,6.354 896.414,6.811 896.252,5.59 897.005,5.788 898.511,5.725 898.51,4.772 
		899.724,4.278 900.761,4.679 901.071,4.826 901.942,4.666 902.39,4.338 903.098,4.328 904.494,4.571 905.993,4.479 906.595,3.474 
		907.493,3.324 908.108,4.249 907.473,4.119 908.61,3.099 909.983,4.167 911.291,3.805 911.014,3.661 911.362,2.45 912.388,2.354 
		911.902,2.19 913.265,2.489 914.015,2.737 914.902,3.479 915.521,3.214 915.895,2.724 917.113,2.466 918.226,2.471 918.114,2.98 
		920.013,3.103 919.912,4.093 921.886,4.027 921.117,4.676 921.79,4.602 923.047,3.455 923.422,5.101 924.078,4.617 926.472,4.447 
		925.381,4.687 927.157,4.998 927.692,5.12 927.865,5.484 929.848,6.227 930.411,5.187 931.048,6.479 931.816,5.883 931.485,7.261 
		933.206,7.327 934.526,7.468 934.74,6.897 936.154,7.345 937.048,7.017 936.918,7.528 938.564,7.567 938.35,8.272 940.138,8.103 
		939.215,8.764 941.091,8.169 941.367,9.406 942.739,9.442 943.791,9.762 944.007,9.493 944.449,10.687 944.732,10.485 
		945.388,9.162 947.553,9.577 947.266,10.255 947.201,8.714 948.125,8.216 949.273,8.119 949.896,8.434 951.711,7.843 
		951.971,7.457 952.273,8.706 954.328,7.35 954.21,8.249 956.371,8.825 955.639,8.34 956.461,8.602 958.058,8.179 958.72,8.411 
		959.75,9.141 959.31,9.747 960.806,9.212 962.552,9.81 961.422,9.502 962.709,8.468 963.892,8.413 964.373,8.829 965.61,9.324 
		965.349,9.015 966.242,9.783 967.131,9.67 968.059,9.72 969.906,8.583 970.331,9.397 971.367,9.34 971.051,9.784 973.385,8.444 
		973.099,9.142 974.007,9.452 975.51,9.485 975.506,9.449 977.085,7.672 977.813,7.059 978.352,8.529 978.442,7.429 978.61,6.778 
		979.672,7.419 980.723,7.587 981.774,9.016 981.438,8.383 981.727,7.545 983.137,9.426 983.553,9.281 984.516,7.879 985.852,9.387 
		987.499,8.492 987.197,9.963 988.865,9.695 988.536,9.914 990.335,9.977 991.23,10.071 990.795,9.354 991.932,10.475 993.853,9.08 
		994.369,9.938 995.498,9.49 994.723,10.541 997.038,9.375 997.329,10.713 998.242,11.232 998.773,10.745 1000.047,11.367 
		999.725,10.168 1001.711,10.423 1002.015,9.871 1003.167,11.823 1003.034,11.65 1004.479,10.846 1004.107,11.292 1006.328,11.013 
		1007.157,11.975 1007.89,11.267 1007.064,12.195 1009.677,11.917 1009.078,12.218 1010.095,12.135 1010.714,12.023 
		1010.823,12.091 1012.271,13.862 1012.211,13.952 1013.508,13.74 1014.012,12.005 1015.121,12.892 1015.883,10.534 1015.641,10.81 
		1016.904,9.845 1017.891,9.475 1018.951,9.829 1019.012,9.324 1020.36,9.478 1019.48,10.152 1021.107,8.735 1020.991,10.324 
		1022,10.317 1023.829,8.881 1023.436,9.038 1024.139,9.477 1026.567,10.391 1027.184,9.241 1026.502,9.724 1028.056,9.501 
		1029.178,9.744 1029.781,10.125 1031.231,8.667 1031.585,10.4 1031.442,10.08 1033.38,9.436 1034.82,8.749 1034.375,9.867 
		1035.092,8.558 1036.434,9.454 1037.437,9.645 1038.695,8.865 1037.812,9.21 1038.527,9.039 1039.227,9.087 1040.25,9.695 
		1041.902,7.989 1043.698,9.437 1042.803,9.792 1043.585,9.818 1045.577,8.622 1045.975,10.071 1047.509,9.833 1046.438,10.842 
		1047.199,10.766 1048.483,10.731 1049.636,11.276 1050.987,10.117 1050.906,10.307 1052.644,10.043 1052.195,10.075 
		1053.081,10.167 1054.993,10.591 1055.826,10.532 1056.278,10.319 1057.051,10.645 1057.278,9.594 1058.973,9.14 1058.782,9.418 
		1060.947,10.192 1060.365,9.878 1061.788,9.775 1062.982,8.613 1062.65,9.492 1063.064,9.277 1065.202,8.648 1065.98,10.077 
		1066.473,8.291 1067.42,9.61 1068.602,9.058 1068.523,9.579 1068.626,9.259 1070.129,9.893 1071.587,8.493 1071.968,8.474 
		1073.637,8.182 1072.606,9.669 1074.74,9.365 1075.975,7.957 1075.217,8.148 1075.994,8.682 1076.867,7.621 1078.701,8.399 
		1078.24,8.882 1078.957,8.769 1081.109,8.155 1081.694,7.822 1082.962,9.139 1082.084,7.816 1084.103,8.313 1084.026,7.41 
		1086.432,7.793 1086.934,8.577 1087.264,7.424 1088.803,8.503 1088.494,6.707 1090.166,8.755 1089.489,6.749 1090.174,8.146 
		1092.545,6.63 1092.034,7.79 1093.843,7.418 1093.92,7.733 1095.044,7.929 1096.179,7.558 1095.977,8.347 1097.737,7.407 
		1097.681,7.663 1099.334,7.093 1100.485,8.088 1101.279,8.547 1100.521,8.715 1102.777,8.488 1102.169,8.523 1104.032,7.705 
		1103.682,8.629 1105.668,7.502 1106.404,8.769 1106.87,9.452 1107.881,8.056 1109.624,8.032 1109.976,8.308 1109.449,9.029 
		1111.653,8.554 1111.95,8.912 1112.475,9.502 1112.948,8.26 1113.338,9.981 1115.526,10.137 1115.146,9.905 1117.469,10.244 
		1118.045,9.674 1117.466,9.402 1119.576,10.003 1119.955,10.015 1120.705,9.154 1120.716,9.868 1121.699,9.531 1123.173,9.944 
		1122.933,10.127 1124.032,9.968 1124.68,10.454 1127.035,9.838 1127.466,10.701 1126.988,11.072 1127.884,10.24 1129.309,9.827 
		1130.3,10.173 1132.041,9.437 1131.303,9.789 1132.234,11.301 1133.02,10.316 1134.177,10.017 1134.371,10.564 1136.582,9.563 
		1136.207,10.919 1137.11,11.028 1137.583,11.303 1138.458,10.486 1139.209,11.634 1140.285,11.212 1140.869,11.187 
		1142.041,10.129 1143.145,10.305 1144.229,10.821 1144.68,10.353 1146.272,10.685 1146.254,12.2 1147.617,11.263 1148.058,11.813 
		1149.182,11.711 1148.313,11.948 1149.754,10.62 1150.962,11.859 1151.737,11.049 1153.37,12.02 1153.276,12.037 1153.94,11.794 
		1154.125,11.22 1155.698,11.159 1155.943,11.127 1158.174,12.757 1158.69,11.216 1158.447,11.938 1159.179,11.268 1160.161,12.429 
		1162.044,12.245 1162.529,13.263 1163.188,11.916 1163.813,12.188 1165.239,12.855 1164.944,12.354 1166.57,13.543 
		1166.184,12.715 1167.388,12.532 1169.268,12.29 1169.821,12.935 1169.289,13.776 1171.723,13.645 1171.535,12.735 
		1171.938,12.609 1173.508,12.983 1174.065,14.326 1174.141,14.379 1175.074,12.795 1176.279,12.783 1176.971,14.002 
		1176.962,13.406 1179.511,14.532 1179.809,14.512 1179.629,12.746 1181.053,11.991 1180.789,12.197 1182.635,11.744 
		1182.806,12.671 1183.518,12.558 1185.151,12.35 1185.394,12.23 1185.423,10.892 1186.322,10.957 1187.935,11.06 1189.422,10.755 
		1190.366,10.898 1190.512,11.423 1191.621,12.142 1191.856,10.775 1191.844,12.368 1192.674,10.587 1194.843,12.201 
		1194.34,12.229 1195.877,11.563 1197.078,12.511 1197.539,12.695 1197.29,11.134 1198.874,12.763 1199.262,11.928 1201.193,13.192 
		1200.215,12.907 1201.105,12.764 1203.441,12.592 1204.08,12.576 1203.314,12.677 1205.442,12.853 1206.104,13.586 1206.59,12.867 
		1207.454,12.977 1207.879,14.181 1208.665,14.084 1209.72,14.809 1211.145,14.271 1211.773,13.392 1212.463,13.746 1212.56,14.015 
		1214.139,14.151 1214.064,13.525 1215.198,12.774 1215.883,13.024 1215.682,13.496 1216.927,12.135 1218.862,12.473 
		1218.828,12.071 1219.867,10.818 1219.477,12.083 1220.631,10.756 1221.2,11.795 1221.99,10.175 1223.643,11.681 1223.914,10.19 
		1224.453,10.879 1225.812,10.142 1225.834,12.02 1227.517,10.856 1228.987,11.279 1227.996,10.55 1228.809,10.871 1229.796,11.037 
		1230.396,11.375 1232.097,10.374 1232.254,10.16 1232.989,9.95 1235.263,10.511 1235.282,9.674 1236.588,10.44 1236.584,9.253 
		1236.873,9.208 1238.155,10.683 1239.513,9.523 1239.111,9.365 1240.785,9.666 1240.758,9.006 1241.578,9.604 1243.054,10.069 
		1243.55,9.886 1244.248,9.652 1245.805,8.739 1246.301,8.414 1246.425,8.436 1248.271,9.378 1248.915,8.753 1248.43,8.894 
		1249.417,8.691 1249.912,8.759 1250.805,10.062 1251.772,9.533 1254.097,10.241 1254.976,10.307 1254.529,8.759 1254.929,8.776 
		1255.272,10.44 1257.996,8.299 1257.888,9.527 1257.658,8.49 1260.113,9.44 1259.556,8.021 1261.227,7.436 1261.883,8.358 
		1262.429,9.205 1263.423,8.482 1263.228,7.679 1265.739,8.62 1264.85,7.747 1267.004,8.195 1267.291,7.208 1268.289,8.212 
		1267.97,7.566 1268.719,8.443 1270.68,8.705 1270.999,8.599 1271.283,8.612 1273.797,7.981 1274.123,8.142 1274.273,9.575 
		1275.652,9.465 1276.713,7.752 1276.824,7.804 1278.085,9.271 1278.334,8.639 1278.896,9.019 1279.061,9.793 1280.07,9.182 
		1282.146,9.507 1282.562,9.279 1283.162,10.668 1283.815,10.156 1284.696,9.483 1285.917,10.092 1285.383,9.479 1286.197,9.83 
		1287.01,10.687 1288.407,9.354 1290.386,9.934 1289.301,10.856 1291.553,11.034 1291.262,10.553 1292.661,10.017 1293.337,9.877 
		1293.159,10.298 1294.977,11.36 1296.46,9.955 1296.055,11.501 1298.254,11.393 1298.514,11.034 1298.837,11.736 1298.95,10.665 
		1301.145,10.511 1300.475,11.76 1302.979,11.15 1302.402,10.307 1302.908,11.953 1304.353,11.383 1304.605,11.412 1305.359,11.079 
		1307.195,12.246 1308.513,11.263 1309.23,12.163 1309.769,12.045 1310.476,12.206 1311.192,12.29 1311.729,11.157 1311.914,11.068 
		1313.481,11.96 1314.23,11.447 1314.914,11.961 1316.609,11.75 1317.066,12.11 1317.278,10.914 1317.119,10.66 1319.491,10.866 
		1318.771,12.232 1320.922,11.253 1321.935,10.917 1321.118,11.885 1322.332,11.197 1322.811,11.03 1325.173,10.044 
		1324.557,11.207 1326.067,10.022 1325.931,11.695 1326.609,10.995 1329.141,10.069 1329.519,11.195 1330.442,10.77 
		1330.042,11.576 1331.475,11.322 1331.387,10.553 1333.255,9.4 1334.481,9.397 1334.544,9.656 1335.744,10.332 1335.349,9.578 
		1337.834,10.483 1338.679,10.056 1339.584,10.402 1339.18,9.758 1339.771,8.365 1341.546,8.585 1342.402,9.465 1343.432,9.453 
		1342.862,8.424 1345.099,8.106 1345.055,8.407 1345.507,8.724 1346.59,7.753 1346.726,8.756 1347.244,8.25 1347.938,8.252 
		1350.133,8.558 1350.139,9.351 1351.609,9.6 1352.826,8.371 1352.183,9.571 1353.58,9.844 1354.666,8.271 1355.185,9.324 
		1355.105,9.199 1356.316,9.566 1356.722,9.893 1359.2,10.285 1359.825,9.063 1360.541,10.529 1360.039,9.339 1361.154,9.849 
		1362.245,10.217 1363.09,9.088 1364.184,10.954 1364.644,10.82 1364.984,9.787 1365.115,10.818 1367.684,10.399 1367.33,12.255 
		1369.224,12.383 1369.131,12.405 1369.448,12.136 1370.473,11.826 1370.941,12.639 1372.392,12.772 1373.483,14.067 
		1373.853,13.937 1373.319,13.336 1375.152,15.125 1375.425,14.997 1377.131,14.234 1376.483,15.464 1377.672,15.194 
		1379.491,13.886 1379.264,15.41 1380.237,14.961 1382.225,14.929 1381.944,15.841 1383.674,15.729 1383.431,15.923 1384.42,15.587 
		1385.394,16.351 1386.19,16.054 1386.291,17.082 1388.332,15.801 1388.687,17.184 1388.466,15.562 1389.308,16.091 
		1391.255,15.604 1392.34,15.86 1392.109,16.507 1392.937,15.174 1394.658,16.71 1395.283,15.759 1395.823,16.741 1395.822,16.512 
		1397.946,16.165 1398.559,15.263 1399.542,16.085 1399.63,15.94 1400.551,14.546 1400.99,15.203 1400.946,14.549 1402.342,14.278 
		1402.994,13.816 1404.688,13.322 1404.568,13.637 1404.797,14.239 1406.593,13.981 1406.544,14.157 1408.525,12.712 
		1407.851,12.863 1409.986,13.637 1410.586,13.969 1410.885,13.593 1411.958,14.305 1412.485,12.853 1413.218,13.95 
		1415.252,13.176 1415.785,14.684 1415.795,13.822 1417.117,13.476 1417.588,15.366 1417.577,14.351 1418.968,15.146 
		1419.875,14.768 1420.998,15.739 1421.184,16.505 1422.222,15.985 1422.147,15.702 1424.226,17.808 1423.807,17.277 
		1425.082,17.259 1424.938,17.935 1427.299,17.248 1427.5,17.421 1428.508,16.883 1428.615,16.855 1429.283,17.243 1431.007,17.458 
		1431.501,17.087 1432.906,16.728 1432.709,16.177 1434.771,16.233 1433.783,16.484 1435.61,16.975 1436.398,16.206 
		1436.355,17.194 1438.529,17.114 1439.239,16.394 1438.88,16.451 1439.326,17.477 1440.595,16.979 1441.274,16.293 
		1442.851,16.527 1444.103,16.49 1443.21,16.531 1444.826,16.45 1446.471,15.271 1446.557,15.033 1447.625,15.879 1447.946,14.839 
		1448.934,14.881 1448.61,15.224 1451.246,15.297 1450.111,15.722 1451.418,14.754 1451.703,15.346 1452.691,14.503 
		1454.854,13.636 1454.188,14.319 1455.225,15.021 1457.298,13.793 1457.581,14.597 1459.107,14.182 1459.729,14.267 
		1460.345,14.167 1460.038,14.217 1461.966,14.834 1462.37,14.048 1463.256,14.609 1463.562,14.499 1464.693,13.414 
		1465.791,14.855 1466.49,14.799 1466.803,14.795 1467.199,15.342 1469.348,14.846 1470.028,14.969 1470.682,14.516 
		1471.033,15.243 1471.174,15.683 1472.568,14.737 1473.603,15.702 1472.902,15.316 1475.088,15.078 1476.332,16.193 
		1476.053,15.737 1477.429,15.634 1477.997,15.538 1477.704,15.421 1478.806,15.894 1480.357,16.057 1480.285,17.026 
		1480.914,15.872 1481.689,15.979 1483.369,17.964 1483.146,17.857 1485.014,17.902 1486.724,16.695 1485.905,17.707 
		1487.846,17.665 1488.628,17.022 1488.561,18.367 1489.497,18.323 1490.749,17.937 1492.154,18.188 1491.652,17.611 
		1494.063,17.706 1494.475,17.719 1494.543,16.951 1495.126,16.922 1496.883,17.408 1497.979,16.405 1498.877,18.294 
		1498.313,18.334 1498.616,16.673 1499.487,18.408 1500.432,18.44 1501.001,17.468 1501.977,18.113 1503.799,17.326 
		1503.818,17.258 1506.137,17.539 1506.807,18.797 1506.837,17.237 1506.716,18.334 1507.673,17.469 1508.526,18.223 
		1510.717,19.065 1510.397,18.522 1511.051,19.809 1510.904,18.673 1513.335,20.931 1512.967,20.93 1514.555,20.418 1513.958,21.11 
		1515.623,20.965 1515.593,20.313 1516.9,20.289 1517.856,21.807 1517.631,21.822 1518.902,21.304 1520.173,21.454 1520.437,21.597 
		1522.122,23.502 1522.542,23.673 1523.094,23.359 1524.668,23.947 1523.916,22.906 1525.568,23.515 1525.222,22.981 
		1527.814,23.239 1528.399,23.289 1529.391,24.612 1530.127,24.546 1530.304,23.599 1531.51,23.239 1531.565,24.303 
		1532.863,24.832 1532.262,24.067 1532.979,24.078 1534.252,23.941 1536.509,24.93 1536.221,24.271 1537.901,25.451 
		1537.649,25.104 1539.375,25.701 1538.614,24.728 1539.585,24.457 1541.664,24.78 1540.822,24.311 1542.575,24.033 
		1542.684,23.989 1544.964,25.685 1544.232,24.722 1546.646,24.458 1547.382,24.402 1546.558,26.285 1548.222,25.566 
		1548.948,24.735 1550.127,24.946 1549.638,24.904 1550.878,25.61 1551.585,24.969 1553.182,24.664 1552.806,25.393 
		1554.562,24.503 1556.078,25.299 1555.179,25.186 1556.161,24.708 1558.055,24.614 1557.865,25.12 1559.724,25.009 
		1559.253,25.477 1560.524,24.362 1562.484,25.105 1561.825,24.03 1562.636,24.051 1564.976,24.979 1563.783,24.164 
		1565.766,24.758 1565.885,23.619 1568.074,23.997 1568.14,25.387 1569.146,23.85 1570.32,25.343 1570.855,24.436 1571.517,24.847 
		1572.336,24.494 1572.321,23.98 1574.35,23.617 1575.354,24.588 1575.782,24.927 1576.039,24.413 1577.553,24.014 1577.416,24.95 
		1579.146,23.862 1579.886,24.62 1580.436,23.292 1580.707,24.318 1582.04,24.635 1582.682,23.304 1583.678,23.365 1584.194,22.705 
		1584.708,22.736 1585.921,23.595 1587.043,24.094 1587.232,23.286 1588.259,23.091 1589.078,23.299 1588.853,21.558 1589.349,22.5 
		1590.646,22.721 1591.752,22.062 1593.248,21.403 1592.735,21.682 1594.774,22.486 1594.432,23.29 1595.941,22.387 1595.39,23.707 
		1596.147,21.998 1597.992,23.708 1598.798,21.762 1598.757,23.226 1599.303,22.749 1601.342,21.764 1601.979,22.923 
		1602.271,21.227 1603.846,21.566 1603.189,20.63 1605.406,20.496 1605.144,19.434 1606.88,20.763 1607.788,20.17 1608.629,19.143 
		1608.579,19.69 1609.967,19.751 1609.381,20.117 1610.498,18.691 1612.28,19.284 1612.869,19.815 1612.728,19.812 1614.948,19.507 
		1613.902,19.817 1615.807,20.271 1615.944,19.771 1616.453,19.237 1617.932,19.012 1619.175,20.358 1619.061,20.674 
		1621.275,19.648 1620.592,20.567 1621.787,20.173 1623.425,18.958 1622.666,18.879 1623.746,19.704 1625.153,18.791 
		1625.938,20.122 1626.894,19.291 1627.6,19.349 1627.53,20.188 1628.122,19.214 1630.382,19.271 1629.916,18.575 1631.955,18.638 
		1632.127,18.288 1633.62,19.045 1634.394,18.42 1635.572,17.969 1634.653,18.5 1637.094,17.056 1637.322,17.814 1636.996,16.976 
		1638.784,17.599 1638.73,17.956 1639.262,16.691 1641.408,17.407 1641.705,17.376 1642.015,16.959 1643.431,17.291 
		1643.608,17.727 1645.435,17.351 1646.438,16.021 1647.106,16.543 1647.982,17.448 1648.479,16.775 1649.039,16.61 1648.951,15.71 
		1651.566,16.96 1652.02,17.387 1652.602,15.97 1652.15,17.126 1653.572,15.702 1654.89,16.537 1654.571,16.485 1655.616,16.356 
		1657.56,17.123 1657.431,15.72 1658.846,14.946 1660.158,15.657 1660.614,15.641 1661.929,16.385 1662.017,16.007 1663.146,15.378 
		1663.162,14.435 1663.829,15.813 1664.883,14.712 1666.523,15.198 1667.559,15.839 1667.865,15.401 1667.973,14.885 
		1668.871,14.771 1669.282,15.52 1670.701,14.265 1670.713,14.296 1672.669,15.402 1673.167,15.856 1674.516,15.154 
		1674.476,14.684 1676.231,14.324 1676.235,15.061 1677.217,14.499 1678.941,14.265 1678.133,15.07 1678.932,15.468 
		1681.372,15.856 1681.074,15.193 1682.894,14.833 1681.995,15.429 1684.203,14.937 1684.851,16.395 1684.866,15.556 
		1686.973,17.247 1685.878,15.905 1687.542,16.716 1689.469,16.977 1688.739,16.383 1690.979,16.635 1690.701,18.228 
		1691.508,18.351 1692.58,19.076 1693.819,17.521 1693.005,17.857 1694.229,18.185 1696.074,19.986 1696.627,20.254 
		1696.188,18.538 1697.834,19.704 1698.724,19.185 1699.737,18.788 1700.43,20.58 1700.547,19.32 1701.803,19.269 1702.101,18.787 
		1702.863,19.854 1704.956,18.573 1705.781,19.804 1706.662,17.806 1706.306,18.236 1707.189,19.848 1708.383,19.691 
		1707.494,19.457 1708.932,19.97 1710.396,19.324 1711.229,20.509 1712.171,19.162 1711.989,20.045 1713.744,20.372 
		1712.952,19.727 1713.828,20.955 1714.322,21.007 1716.937,20.62 1716.143,21.592 1718.252,20.188 1719.018,20.619 
		1718.992,21.669 1719.183,20.386 1720.496,20.282 1722.212,20.742 1722.488,20.196 1723.154,20.063 1723.682,20.262 
		1725.658,20.059 1726.181,20.329 1726.164,20.467 1726.707,21.017 1728.353,21.683 1729.07,21.525 1729.246,20.5 1731.078,21.701 
		1731.752,21.001 1732.497,21.427 1732.706,22.025 1733.459,22.75 1733.477,21.893 1735.475,22.875 1734.782,21.934 
		1737.127,21.493 1737.413,23.419 1737.971,23.291 1739.881,23.155 1740.129,22.051 1741.401,23.016 1740.811,21.818 
		1742.854,22.266 1742.642,23.149 1744.725,22.83 1745.399,23.487 1744.591,23.06 1746.229,22.373 1747.062,23.876 1747.377,23.476 
		1747.959,22.73 1749.045,22.485 1749.971,23.55 1750.452,23.683 1752.499,23.276 1752.012,22.965 1752.854,23.567 1754.585,24.745 
		1754.177,24.183 1755.845,25.269 1755.41,23.771 1757.266,24.689 1756.893,24.937 1757.664,24.89 1758.358,24.232 1760.419,24.865 
		1760.77,25.341 1760.797,24.772 1763.002,24.892 1762.534,24.769 1762.947,25.026 1765.301,25.854 1765.752,25.822 
		1765.389,26.292 1767.593,26.311 1766.877,25.92 1769.123,24.673 1769.791,24.877 1770.287,25.087 1771.672,24.053 
		1772.624,24.892 1772.72,24.599 1773.929,23.091 1773.187,23.287 1773.978,23.072 1775.273,22.746 1776.361,21.286 
		1777.606,21.351 1778.017,21.583 1777.34,21.717 1779.104,21.371 1779.767,22.197 1780.6,20.978 1780.653,21.936 1781.89,21.118 
		1783.208,21.936 1784.775,21.106 1785.068,21.896 1785.563,21.408 1786.688,22.128 1787.22,21.206 1787.376,21.489 
		1788.212,20.845 1789.45,22.471 1789.45,22.363 1791.277,22.232 1791.795,22.011 1791.459,21.67 1793.934,21.018 1793.49,21.578 
		1795.214,21.414 1795.867,20.938 1796.453,22.401 1796.812,22.07 1798.354,20.646 1798.656,21.549 1799.715,20.027 
		1800.299,19.975 1801.213,20.448 1800.927,19.811 1801.614,19.155 1803.81,19.377 1803.296,19.249 1803.781,19.867 
		1806.238,18.366 1807.108,18.844 1807.742,18.83 1808.135,19.384 1809.075,18.458 1810.13,19.095 1810.684,18.17 1811.227,18.263 
		1811.999,18.004 1811.99,18.525 1812.909,19.323 1813.758,18.323 1814.226,18.688 1816.626,17.679 1816.456,18.832 
		1818.233,17.272 1818.414,17.959 1819.037,19.167 1819.939,17.749 1821.424,17.712 1821.126,18.672 1822.525,18.157 
		1822.668,16.889 1823.899,18.347 1824.536,18.215 1826.429,18.085 1825.491,17.798 1826.432,17.236 1828.234,15.971 
		1828.939,15.924 1830.247,15.893 1830.831,16.542 1830.701,16.719 1832.368,15.455 1832.062,15.081 1833.786,13.711 
		1834.573,14.389 1835.187,13.286 1834.459,12.886 1835.303,12.051 1837.118,13.291 1837.548,11.771 1837.799,11.661 
		1838.848,12.048 1838.692,11.534 1840.557,10.653 1841.219,10.876 1841.934,11.93 1842.418,11.468 1843.917,11.533 
		1843.235,11.266 1844.87,10.58 1845.491,12.312 1846.971,10.872 1846.696,10.848 1847.369,11.569 1848.121,11.841 1848.551,11.579 
		1850.039,10.497 1850.793,9.723 1850.851,11.161 1852.087,9.421 1854.318,10.796 1854.244,10.706 1854.912,10.092 1854.879,11.016 
		1857.103,9.938 1856.774,9.453 1858.577,10.934 1858.676,10.461 1860.055,9.726 1859.923,9.629 1861.311,9.755 1862.373,10.784 
		1862.916,10.944 1862.895,10.863 1863.346,11.063 1864.055,11.001 1865.668,11.168 1866.879,11.067 1867.298,11.698 
		1868.886,12.452 1868.036,11.624 1869.244,11.064 1870.863,12.706 1872.336,12.623 1871.414,11.508 1873.438,12.449 
		1874.315,12.406 1874.181,12.142 1875.957,13.161 1875.16,13.42 1876.771,12.884 1877.239,13.313 1877.88,12.957 1879.359,13.497 
		1879.148,14.223 1880.344,14.139 1882.057,14.324 1881.906,13.54 1883.756,13.859 1883.029,14.007 1884.639,14.612 
		1886.444,14.219 1886.732,15.943 1887.96,14.803 1887.465,15.42 1888.961,15.228 1889.413,16.82 1890.703,16.24 1890.39,16.818 
		1890.823,15.955 1892.292,15.738 1892.635,15.253 1894.398,15.098 1894.572,16.452 1895.34,15.271 1896.945,14.926 
		1897.761,15.016 1897.756,15.367 1897.7,16.501 1899.316,15.566 1900.875,15.16 1901.229,14.587 1901.912,14.839 1902.569,15.192 
		1904.083,15.028 1904.215,15.432 1904.777,14.509 1905.66,13.754 1905.593,15.567 1908.155,14.318 1907.321,13.576 
		1908.242,13.716 1908.872,14.39 1910.836,14.603 1910.775,14.103 1911.193,14.106 1912.328,14.446 1913.997,14.211 
		1914.172,12.785 1914.455,13.251 1915.916,12.809 1917.184,13.919 1917.865,13.836 1919.046,13.815 1918.014,12.157 
		1920.244,12.366 1920.403,11.942 1920.451,10.893 1921.693,10.342 1920.418,9.033 1920.993,9.979 1921.38,7.494 1921.362,7.389 
		1920.485,7.405 1921.157,5.436 1920.808,4.678 1921.522,4.608 1921.632,4.45 1921.053,2.129 1920.641,1.374 1920.512,1.543 
		1921.235,0.137 1919.875,0.706 1919.805,-1.192 1919.435,-0.67 1918.984,-1.57 1916.809,-0.583 1917.315,-1.204 1914.604,-0.563 
		1915.314,-0.663 1913.313,-1.709 1913.769,-1.106 	"></polygon>
</g></svg>